<svg width="26" height="26" viewBox="0 0 26 26" fill="none" xmlns="http://www.w3.org/2000/svg">
<g clip-path="url(#clip0)">
<path d="M12.8347 11.959C15.8609 11.959 18.3143 9.50563 18.3143 6.47939C18.3143 3.45314 15.8609 1 12.8347 1C9.80844 1 7.35529 3.45337 7.35529 6.47961C7.35869 9.50427 9.81002 11.9556 12.8347 11.959ZM12.8347 2.16071C15.22 2.16071 17.1536 4.09426 17.1536 6.47961C17.1536 8.86475 15.22 10.7983 12.8347 10.7983C10.4495 10.7983 8.51601 8.86475 8.51601 6.47961C8.51873 4.09539 10.4507 2.16343 12.8347 2.16071Z" fill="#2E2E2E"/>
<path d="M13 13.3334C7.29202 13.3312 2.66436 17.741 2.66666 23.1797V25.4393C2.66666 25.749 2.93007 26 3.25508 26H22.7449C23.0699 26 23.3333 25.749 23.3333 25.4393V23.1797C23.3359 17.741 18.708 13.3312 13 13.3334ZM22.1565 24.8787H3.84351V23.1797C3.83524 20.0573 5.57868 17.1689 8.41509 15.6053C11.2515 14.0419 14.7485 14.0419 17.5851 15.6053C20.4215 17.1689 22.165 20.0573 22.1565 23.1797V24.8787Z" fill="#2E2E2E"/>
<path d="M6.50131 22.3335C6.22461 22.3335 6 22.5581 6 22.8348C6 23.1115 6.22461 23.3361 6.50131 23.3361C6.77801 23.3361 7.00262 23.1115 7.00262 22.8348C7.00262 22.5581 6.77801 22.3335 6.50131 22.3335Z" fill="#2E2E2E"/>
<path d="M14.334 22.3474C13.334 22.3474 12.3233 22.3568 11.6673 22.3474C10.0596 22.3255 9.14763 22.3474 7.97686 22.3474C7.97686 22.3474 7.48099 22.5141 7.48099 22.8474C7.481 23.1807 7.97688 23.3302 7.97688 23.3302C9.31429 23.3302 10.35 23.3122 11.6673 23.3302C12.3599 23.3402 13.6672 23.3302 14.334 23.3302C14.334 23.3302 14.834 23.1808 14.834 22.8474C14.834 22.5141 14.5007 22.3474 14.334 22.3474Z" fill="#2E2E2E"/>
</g>
<defs>
<clipPath id="clip0">
<rect width="26" height="26" fill="white"/>
</clipPath>
</defs>
</svg>
