<svg width="122" height="42" viewBox="0 0 122 42" fill="none" xmlns="http://www.w3.org/2000/svg">
<path d="M57.4491 24.1348C57.4491 27.5131 55.082 29.7957 52.2596 29.7957C51.0456 29.8261 49.8621 29.4305 48.9516 28.6392V29.4914H45.5526V14.1522H48.9516V19.6609C49.8621 18.8696 51.0456 18.4435 52.2596 18.5044C55.082 18.474 57.4491 20.7566 57.4491 24.1348ZM54.1108 24.1348C54.2322 22.7348 53.17 21.487 51.7437 21.3957C51.683 21.3957 51.5919 21.3957 51.5312 21.3957C50.0138 21.5479 48.8909 22.887 49.0427 24.4087C49.1641 25.7174 50.1959 26.7827 51.5312 26.9044C52.9272 26.9044 54.0805 25.7783 54.1108 24.3783C54.1412 24.2566 54.1108 24.1957 54.1108 24.1348Z" fill="white"/>
<path d="M66.7055 18.7175L66.5537 22.1262H65.9468C63.5796 22.1262 62.2746 23.3436 62.2746 26.1131V29.4609H58.8756V18.8088H62.2746V20.8479C63.003 19.4783 64.399 18.6566 65.9468 18.6566C66.1895 18.6262 66.4627 18.6566 66.7055 18.7175Z" fill="white"/>
<path d="M122 18.7175L121.848 22.1262H121.241C118.874 22.1262 117.569 23.3436 117.569 26.1131V29.4609H114.17V18.8088H117.569V20.8479C118.298 19.4783 119.694 18.6566 121.241 18.6566C121.484 18.6262 121.757 18.6566 122 18.7175Z" fill="white"/>
<path d="M78.9964 29.4609H75.6278V28.6087C74.7173 29.4 73.5337 29.8261 72.3198 29.7653C69.4974 29.7653 67.1302 27.4827 67.1302 24.1044C67.1302 20.7261 69.4974 18.4435 72.3198 18.4435C73.5337 18.4131 74.7173 18.8087 75.6278 19.6V18.7479H79.0268L78.9964 29.4609ZM75.6278 24.1348C75.6885 22.674 74.5352 21.4261 73.0785 21.3653C73.0482 21.3653 73.0482 21.3653 73.0178 21.3653C71.5914 21.3653 70.4686 22.4914 70.4382 23.9218C70.4382 23.9827 70.4382 24.074 70.4382 24.1348C70.3168 25.5348 71.379 26.7827 72.775 26.874C72.8661 26.874 72.9268 26.874 73.0178 26.874C74.4745 26.8435 75.6581 25.6566 75.6278 24.1957C75.6278 24.1653 75.6278 24.1348 75.6278 24.1348Z" fill="white"/>
<path d="M98.905 22.7957V29.461H95.5364V23.4957C95.6274 22.4914 94.8687 21.6088 93.8672 21.5175C93.8369 21.5175 93.8065 21.5175 93.7762 21.5175C92.5622 21.5175 91.7125 22.4305 91.7125 24.2262V29.461H88.3135V23.4957C88.4045 22.4914 87.6458 21.6088 86.6443 21.5175C86.5836 21.5175 86.5533 21.5175 86.4926 21.5175C85.2787 21.5175 84.4593 22.4305 84.4593 24.2262V29.461H81.0299V18.8088H84.4289V19.7827C85.218 18.9001 86.3712 18.4436 87.5548 18.474C88.9508 18.4131 90.2861 19.1131 91.0145 20.3001C91.8946 19.1131 93.3209 18.4436 94.7777 18.474C97.0841 18.474 98.905 20.1784 98.905 22.7957Z" fill="white"/>
<path d="M112.137 29.4609H108.738V28.6087C107.827 29.4 106.644 29.8261 105.43 29.7653C102.608 29.7653 100.24 27.4827 100.24 24.1044C100.24 20.7261 102.608 18.4435 105.43 18.4435C106.644 18.4131 107.827 18.8087 108.738 19.6V18.7479H112.137V29.4609ZM108.738 24.1348C108.799 22.674 107.645 21.4261 106.189 21.3653C106.158 21.3653 106.158 21.3653 106.128 21.3653C104.702 21.3653 103.579 22.4914 103.548 23.9218C103.548 23.9827 103.548 24.074 103.548 24.1348C103.427 25.5348 104.489 26.7827 105.885 26.874C105.976 26.874 106.037 26.874 106.128 26.874C107.585 26.8435 108.768 25.6566 108.738 24.1957C108.738 24.1653 108.738 24.1348 108.738 24.1348Z" fill="white"/>
<path d="M18.8463 2.13049C8.43682 2.13049 0 10.5914 0 21.0305C0 31.4696 8.43682 39.9305 18.8463 39.9305C29.2557 39.9305 37.6925 31.4696 37.6925 21.0305C37.6622 10.5914 29.2557 2.16093 18.8463 2.13049ZM18.8463 5.20441C25.6746 5.20441 31.7139 9.61745 33.8383 16.1305L22.4577 27.5435L6.34279 11.3827C9.31692 7.48701 13.9602 5.20441 18.8463 5.20441ZM3.30796 18.1696C3.58109 16.7392 4.03632 15.3696 4.67363 14.0609L25.796 35.2435C24.491 35.8827 23.1254 36.3392 21.699 36.6131L3.30796 18.1696ZM3.09552 22.2783L17.602 36.8261C9.86318 36.187 3.73284 30.0392 3.09552 22.2783ZM28.4667 33.5696L24.6124 29.7044L34.5667 19.7218C34.597 20.1479 34.6274 20.6044 34.6274 21.0305C34.6274 25.9609 32.3512 30.587 28.4667 33.5696Z" fill="white"/>
</svg>
