<svg width="21" height="16" viewBox="0 0 21 16" fill="none" xmlns="http://www.w3.org/2000/svg">
<path d="M5.78545 12.3101C5.64353 12.3101 5.52832 12.4253 5.52832 12.5672C5.52832 12.7091 5.64353 12.8243 5.78545 12.8243C5.92737 12.8243 6.04258 12.7091 6.04258 12.5672C6.04258 12.4253 5.92737 12.3101 5.78545 12.3101Z" fill="#F0BB00"/>
<path d="M12.5386 12.3169C12.0279 12.3146 8.78831 12.305 8.45331 12.2988C7.63227 12.284 7.16661 12.2931 6.56874 12.2905C6.56874 12.2905 6.3159 12.3745 6.31665 12.5447C6.31741 12.7149 6.57097 12.7923 6.57097 12.7923C7.25393 12.7953 7.78278 12.7885 8.45553 12.8007C8.80923 12.8073 12.2003 12.8172 12.5408 12.8187C12.5408 12.8187 12.7958 12.7435 12.795 12.5733C12.7943 12.4031 12.6237 12.3172 12.5386 12.3169Z" fill="#F0BB00"/>
<path d="M13.4926 6.00541L9.5664 3.96668C9.26094 3.80801 8.88845 3.82042 8.5941 3.99919C8.29995 4.17792 8.11719 4.50271 8.11719 4.84693V8.93779C8.11719 9.2825 8.30029 9.6076 8.59528 9.78633C8.75022 9.88013 8.92792 9.92973 9.10913 9.92973C9.26856 9.92973 9.42741 9.89071 9.56861 9.81694L13.4948 7.76495C13.8237 7.59315 14.0278 7.25576 14.0274 6.8844C14.0269 6.51328 13.822 6.17645 13.4926 6.00541ZM13.1351 7.07669H13.1351L9.20883 9.1287C9.14343 9.16293 9.06055 9.16026 8.99755 9.12212C8.93348 9.08329 8.8937 9.01267 8.8937 8.93776V4.84693C8.8937 4.7722 8.9334 4.7017 8.99724 4.6629C9.03139 4.6422 9.07026 4.63176 9.10928 4.63176C9.14335 4.63176 9.1775 4.63972 9.20841 4.65579L13.1347 6.69456C13.2062 6.73171 13.2507 6.80488 13.2509 6.88535C13.2509 6.96606 13.2065 7.03938 13.1351 7.07669Z" fill="#F0BB00"/>
<path d="M19.5824 1.26888V1.26892C18.8242 0.367661 17.491 0 14.9806 0H6.33429C3.76394 0 2.40723 0.391606 1.65143 1.35172C0.912109 2.29101 0.912109 3.57558 0.912109 5.35351V8.59344C0.912109 10.0537 1.03534 11.5458 1.92948 12.5668C2.75403 13.5084 4.15368 13.9469 6.33429 13.9469H14.9806C17.157 13.9469 18.3793 13.6266 19.1998 12.8415C20.0431 12.0344 20.4029 10.7639 20.4029 8.59344V5.35351C20.4029 3.47527 20.3458 2.17627 19.5824 1.26888ZM19.6264 8.59344C19.6264 10.5314 19.3383 11.6341 18.6629 12.2804C18.0024 12.9125 16.9356 13.1704 14.9807 13.1704H6.33429C2.35938 13.1704 1.68866 11.7585 1.68866 8.59348V5.35355C1.68866 3.73177 1.68866 2.56 2.26162 1.8321C2.85179 1.08235 4.03171 0.77655 6.33433 0.77655V0.776512H14.9806C17.2342 0.776512 18.3953 1.064 18.9882 1.76879V1.76883C19.582 2.47457 19.6264 3.64635 19.6264 5.35351V8.59344Z" fill="#F0BB00"/>
</svg>
