<svg width="18" height="18" viewBox="0 0 18 18" fill="none" xmlns="http://www.w3.org/2000/svg">
<path d="M4.94991 5.7666H1.73475C1.40913 5.7666 1.14417 6.03153 1.14417 6.35718V16.6861C1.14417 17.0117 1.40909 17.2767 1.73475 17.2767H4.94991C5.27557 17.2767 5.54049 17.0118 5.54049 16.6861V6.35718C5.54049 6.03156 5.27557 5.7666 4.94991 5.7666ZM4.87599 16.6122H1.80873V6.43114H4.87599V16.6122Z" fill="#F0BB00"/>
<path d="M5.07676 1.35055C4.61313 0.88712 3.9976 0.631836 3.34352 0.631836C1.99044 0.631836 0.889648 1.73162 0.889648 3.08339C0.889648 4.43569 1.99044 5.53587 3.34352 5.53587C4.69566 5.53587 5.7957 4.43569 5.7957 3.08343C5.79573 2.42948 5.54041 1.81407 5.07676 1.35055ZM3.34352 4.8713C2.35692 4.8713 1.55418 4.06922 1.55418 3.08339C1.55418 2.09803 2.35688 1.2964 3.34352 1.2964C3.82014 1.2964 4.26885 1.48256 4.60691 1.82056C4.94498 2.15853 5.13113 2.60703 5.13113 3.08339C5.13116 4.06925 4.32925 4.8713 3.34352 4.8713Z" fill="#F0BB00"/>
<path d="M16.8269 7.30232C16.1255 6.11295 14.8809 5.50989 13.1279 5.50989C11.9985 5.50989 11.1778 5.89529 10.6318 6.29291C10.5997 5.99739 10.3486 5.76657 10.0447 5.76657H6.96558C6.63996 5.76657 6.375 6.0315 6.375 6.35715V16.6861C6.375 17.0117 6.63993 17.2767 6.96558 17.2767H10.1737C10.4994 17.2767 10.7643 17.0117 10.7643 16.6861V11.5757C10.7643 9.84337 11.2338 9.51501 12.1002 9.51501C12.9473 9.51501 13.1793 9.97701 13.1793 11.6643V16.6862C13.1793 17.0119 13.4442 17.2768 13.7698 17.2768H16.9791C17.3048 17.2768 17.5697 17.0119 17.5697 16.6862V11.0206C17.5697 9.87585 17.4853 8.41875 16.8269 7.30232ZM16.9052 16.6122H13.8438V11.6643C13.8438 10.9912 13.8251 10.2902 13.6019 9.76603C13.3431 9.15851 12.8379 8.85045 12.1003 8.85045C10.3374 8.85045 10.0998 10.2281 10.0998 11.5757V16.6122H7.03957V6.43114H9.97071V7.02804C9.97071 7.165 10.0548 7.28795 10.1824 7.33767C10.3101 7.38741 10.4552 7.35366 10.5478 7.25274C10.9174 6.85007 11.7442 6.17445 13.1279 6.17445C16.4476 6.17445 16.9052 8.50362 16.9052 11.0206V16.6122H16.9052Z" fill="#F0BB00"/>
<path d="M2.89221 10.9568C2.89221 10.7722 2.74235 10.6223 2.55774 10.6223C2.37312 10.6223 2.22326 10.7722 2.22326 10.9568C2.22326 11.1414 2.37312 11.2913 2.55774 11.2913C2.74235 11.2913 2.89221 11.1414 2.89221 10.9568Z" fill="#F0BB00"/>
<path d="M2.8829 16.1824C2.8829 15.5152 2.87669 14.8409 2.8829 14.4032C2.89753 13.3305 2.8829 12.722 2.8829 11.9409C2.8829 11.9409 2.7717 11.61 2.54931 11.61C2.32692 11.6101 2.22721 11.9409 2.22721 11.9409C2.22721 12.8332 2.23921 13.5243 2.22721 14.4032C2.22055 14.8653 2.22721 15.7375 2.22721 16.1824C2.22721 16.1824 2.32691 16.516 2.54931 16.516C2.77171 16.516 2.8829 16.2936 2.8829 16.1824Z" fill="#F0BB00"/>
</svg>
