<svg width="27" height="20" viewBox="0 0 27 20" fill="none" xmlns="http://www.w3.org/2000/svg">
<path d="M2.22885 15.1499C1.98227 15.1499 1.7821 15.3501 1.7821 15.5967C1.7821 15.8432 1.98227 16.0434 2.22885 16.0434C2.47544 16.0434 2.6756 15.8432 2.6756 15.5967C2.6756 15.3501 2.47544 15.1499 2.22885 15.1499Z" fill="#F0BB00"/>
<path d="M9.20854 15.1622C8.31738 15.1622 7.41669 15.1705 6.83211 15.1622C5.39938 15.1427 4.58665 15.1622 3.54331 15.1622C3.54331 15.1622 3.10141 15.3108 3.10141 15.6078C3.10142 15.9048 3.54333 16.038 3.54333 16.038C4.73518 16.038 5.65815 16.022 6.83211 16.038C7.44933 16.0469 8.61434 16.038 9.20854 16.038C9.20854 16.038 9.65412 15.9049 9.65412 15.6078C9.65412 15.3107 9.35707 15.1622 9.20854 15.1622Z" fill="#F0BB00"/>
<path d="M25.082 0H1.35581C0.610083 0 0 0.610083 0 1.35576V16.2694C0 17.015 0.610083 17.6252 1.35581 17.6252H25.082C25.8277 17.6252 26.4378 17.0152 26.4378 16.2694V1.35576C26.4378 0.610083 25.8277 0 25.082 0ZM24.5732 1.01677L13.9988 8.94822C13.8087 9.0929 13.5168 9.18342 13.2188 9.18208C12.9209 9.18342 12.6291 9.0929 12.4389 8.94822L1.86454 1.01677H24.5732ZM24.7058 16.6085C24.6997 16.602 24.7116 16.6156 24.7058 16.6085H1.73199C1.7262 16.6156 1.73808 16.6017 1.73199 16.6085C1.72589 16.6152 1.39848 16.6148 1.20924 16.4137C1.02598 16.2189 1.01682 15.88 1.01682 15.88V1.65231L11.8292 9.76159C12.2356 10.0643 12.7301 10.1975 13.2188 10.1988C13.7069 10.1978 14.2017 10.0646 14.6084 9.76159L25.4208 1.65231V15.8799C25.4208 15.8799 25.3982 16.1895 25.2496 16.338C24.9526 16.6085 24.7058 16.6085 24.7058 16.6085Z" fill="#F0BB00"/>
</svg>
