<svg width="10" height="19" viewBox="0 0 10 19" fill="none" xmlns="http://www.w3.org/2000/svg">
<path d="M4.24915 12.1367C4.24915 11.9408 4.09012 11.7817 3.8942 11.7817C3.69829 11.7817 3.53926 11.9408 3.53926 12.1367C3.53926 12.3326 3.69829 12.4916 3.8942 12.4916C4.09011 12.4916 4.24915 12.3326 4.24915 12.1367Z" fill="#F0BB00"/>
<path d="M4.23928 17.682C4.23928 16.974 4.23269 16.2584 4.23929 15.794C4.25481 14.6557 4.23928 14.0099 4.23928 13.181C4.23928 13.181 4.12128 12.8299 3.88528 12.8299C3.64929 12.8299 3.54347 13.181 3.54347 13.181C3.54347 14.1279 3.5562 14.8612 3.54347 15.794C3.53641 16.2843 3.54347 17.2099 3.54347 17.682C3.54347 17.682 3.64927 18.0361 3.88528 18.0361C4.12129 18.0361 4.23928 17.8 4.23928 17.682Z" fill="#F0BB00"/>
<path d="M7.52075 4.1037H9.24119C9.60977 4.1037 9.90969 3.80382 9.90969 3.4352V0.670674C9.90969 0.302056 9.60981 0.00217572 9.24119 0.00217572H6.87869C6.85605 0.00121693 6.8167 0 6.76157 0C6.31581 0 4.7657 0.0879505 3.53591 1.21929C2.19356 2.45439 2.32201 3.93181 2.3785 4.29608V6.09713H0.668498C0.299917 6.09713 0 6.39701 0 6.76563V9.73895C0 10.1076 0.29988 10.4075 0.668498 10.4075H2.27956V18.2123C2.27956 18.5809 2.57944 18.8808 2.94806 18.8808H6.3174C6.68598 18.8808 6.98589 18.5809 6.98589 18.2123V10.4461H8.89422C9.234 10.4461 9.5195 10.1915 9.55833 9.85397L9.9053 6.84219C9.92709 6.65297 9.86695 6.46291 9.7402 6.32075C9.61346 6.17867 9.43162 6.09717 9.24126 6.09717H6.98604V4.58534C6.98597 4.27296 7.07119 4.1037 7.52075 4.1037ZM6.6099 6.84941H9.14727L8.81958 9.69385H6.60979C6.4021 9.69385 6.23369 9.86223 6.23369 10.07V18.1286H3.03173V10.0314C3.03173 9.82366 2.86332 9.65528 2.65563 9.65528H0.752171V6.84934H2.7546C2.96229 6.84934 3.13071 6.68096 3.13071 6.47324V4.26551C3.13071 4.24394 3.12886 4.22236 3.12518 4.20109C3.08553 3.97337 2.94382 2.78632 4.04525 1.77288C5.07466 0.82585 6.38466 0.752245 6.76161 0.752245C6.81446 0.752245 6.84591 0.753646 6.85166 0.753941C6.85786 0.754236 6.86405 0.754384 6.87025 0.754384H9.15755V3.35153H7.52079C6.71489 3.35153 6.23376 3.81278 6.23376 4.58534V6.47327C6.23376 6.68104 6.40221 6.84941 6.6099 6.84941Z" fill="#F0BB00"/>
</svg>
