<svg width="22" height="16" viewBox="0 0 22 16" fill="none" xmlns="http://www.w3.org/2000/svg">
<path d="M8.55516 5.4937C8.39086 5.32898 8.12377 5.32898 7.95948 5.4937C7.79476 5.658 7.79476 5.92509 7.95948 6.08938C8.12377 6.2541 8.39086 6.2541 8.55516 6.08938C8.71988 5.92509 8.71988 5.658 8.55516 5.4937Z" fill="#F0BB00"/>
<path d="M10.7824 6.21319C10.0855 6.21319 9.51855 6.78014 9.51855 7.47701C9.51855 8.17388 10.0855 8.74083 10.7824 8.74083C11.4792 8.74083 12.0462 8.17388 12.0462 7.47701C12.0462 6.78014 11.4792 6.21319 10.7824 6.21319ZM10.7824 7.89828C10.5501 7.89828 10.3611 7.7093 10.3611 7.47701C10.3611 7.24472 10.5501 7.05574 10.7824 7.05574C11.0147 7.05574 11.2037 7.24472 11.2037 7.47701C11.2037 7.7093 11.0147 7.89828 10.7824 7.89828Z" fill="#F0BB00"/>
<path d="M10.7843 4.10634C10.3134 4.10634 9.858 4.2015 9.43095 4.38922C9.21796 4.48287 9.12119 4.73142 9.2148 4.94442C9.30841 5.15742 9.557 5.25414 9.77 5.16058C10.0895 5.02012 10.4308 4.94889 10.7843 4.94889C12.178 4.94889 13.3119 6.08279 13.3119 7.47653C13.3119 8.87028 12.178 10.0042 10.7843 10.0042C9.39051 10.0042 8.25661 8.87028 8.25661 7.47653C8.25661 7.46212 8.25657 7.44805 8.25691 7.43365C8.2623 7.20106 8.07812 7.00812 7.84553 7.00272C7.61257 6.99691 7.42 7.18147 7.41461 7.4141C7.4141 7.43508 7.41406 7.45555 7.41406 7.47653C7.41406 9.33486 8.92593 10.8467 10.7843 10.8467C12.6426 10.8467 14.1544 9.33486 14.1544 7.47653C14.1544 5.61821 12.6426 4.10634 10.7843 4.10634Z" fill="#F0BB00"/>
<path d="M21.4637 7.54857C18.7876 4.51881 14.8139 1.99997 10.7846 1.99997C6.75475 1.99997 2.78116 4.51944 0.105525 7.54857C-0.0484924 7.72298 -0.0319784 7.98918 0.142387 8.1432C0.316794 8.29722 0.58304 8.2807 0.737015 8.10634C0.826789 8.00469 0.918753 7.90341 1.0119 7.80277C3.09362 10.9482 6.86731 12.9531 10.7846 12.9531C14.7019 12.9531 18.4756 10.9482 20.5573 7.80277C20.6505 7.90345 20.7424 8.00473 20.8322 8.10634C20.9857 8.28016 21.2519 8.29768 21.4268 8.1432C21.6012 7.98918 21.6177 7.72294 21.4637 7.54857ZM10.7846 12.1105C7.08098 12.1105 3.51886 10.1862 1.61394 7.18248C3.11486 5.71177 6.58287 2.84252 10.7846 2.84252C14.9864 2.84252 18.4544 5.71177 19.9553 7.18244C18.0504 10.1862 14.4882 12.1105 10.7846 12.1105Z" fill="#F0BB00"/>
<rect x="1.08594" y="14.2632" width="23.1829" height="1" transform="rotate(-37.8244 1.08594 14.2632)" fill="#F0BB00"/>
</svg>
