<svg width="21" height="24" viewBox="0 0 21 24" fill="none" xmlns="http://www.w3.org/2000/svg">
<path d="M20.6947 9.7602C20.6178 9.66681 20.4997 9.61231 20.3748 9.61231H5.76322L4.83812 5.88883C4.70779 5.36544 4.22027 5 3.65284 5H1.21761C0.546183 5 0 5.51723 0 6.15308C0 6.78892 0.546183 7.30615 1.21761 7.30615H2.68842L5.71455 19.4855C5.84487 20.0089 6.33239 20.3744 6.89982 20.3744H7.71267C7.45726 20.6958 7.30569 21.0952 7.30569 21.5274C7.30569 22.5871 8.21605 23.4492 9.33505 23.4492C10.454 23.4492 11.3644 22.5871 11.3644 21.5274C11.3644 21.0952 11.2128 20.6958 10.9574 20.3744H14.4501C14.1947 20.6958 14.0432 21.0952 14.0432 21.5274C14.0432 22.5871 14.9535 23.4492 16.0725 23.4492C17.1915 23.4492 18.1019 22.5871 18.1019 21.5274C18.1019 21.0952 17.9503 20.6958 17.6949 20.3744H17.696C18.3674 20.3744 18.9136 19.8571 18.9136 19.2213C18.9136 18.5854 18.3674 18.0682 17.696 18.0682H7.86424L7.48215 16.5308H9.86141H9.8622H9.86284H15.7882H15.789H15.7898H18.1174C18.6769 16.5308 19.1628 16.1716 19.2989 15.6573L20.7686 10.0899C20.7989 9.97505 20.7716 9.85343 20.6947 9.7602ZM18.3515 15.6573L7.2911 15.7621L5.95426 10.381H19.8549L18.3515 15.6573ZM10.5527 21.5274C10.5527 22.1633 10.0065 22.6805 9.33505 22.6805C8.66362 22.6805 8.11743 22.1633 8.11743 21.5274C8.11743 20.8916 8.66362 20.3744 9.33505 20.3744C10.0065 20.3744 10.5527 20.8916 10.5527 21.5274ZM17.2901 21.5274C17.2901 22.1633 16.7439 22.6805 16.0725 22.6805C15.4011 22.6805 14.8549 22.1633 14.8549 21.5274C14.8549 20.8916 15.4011 20.3744 16.0725 20.3744C16.7439 20.3744 17.2901 20.8916 17.2901 21.5274ZM17.696 18.8369C17.9199 18.8369 18.1019 19.0093 18.1019 19.2213C18.1019 19.4333 17.9199 19.6056 17.696 19.6056H6.89982C6.71068 19.6056 6.54817 19.4837 6.50473 19.3093L3.33132 6.53744H1.21761C0.993751 6.53744 0.811743 6.36508 0.811743 6.15308C0.811743 5.94108 0.993751 5.76872 1.21761 5.76872H3.65284C3.84199 5.76872 4.00449 5.89063 4.04794 6.0651L6.57195 16.2234C6.57211 16.224 6.57227 16.2246 6.57242 16.2254L7.22134 18.8369H17.696Z" fill="white"/>
<path d="M8.28844 14.0962C8.06442 14.0962 7.88257 14.2684 7.88257 14.4806C7.88257 14.6927 8.06442 14.8649 8.28844 14.8649C8.51246 14.8649 8.69431 14.6927 8.69431 14.4806C8.69431 14.2684 8.51246 14.0962 8.28844 14.0962Z" fill="white"/>
<path d="M14.6502 13.9953C13.8405 13.9953 13.0223 14.0024 12.4912 13.9953C11.1895 13.9785 10.4512 13.9953 9.50328 13.9953C9.50328 13.9953 9.10181 14.1231 9.10181 14.3786C9.10182 14.6342 9.50329 14.7488 9.50329 14.7488C10.5861 14.7488 11.4246 14.735 12.4912 14.7488C13.0519 14.7564 14.1103 14.7488 14.6502 14.7488C14.6502 14.7488 15.055 14.6342 15.055 14.3786C15.055 14.1231 14.7851 13.9953 14.6502 13.9953Z" fill="white"/>
<rect x="13.1328" width="1" height="6" fill="white"/>
<path d="M13.6328 8L11.4677 5H15.7979L13.6328 8Z" fill="white"/>
</svg>
