<svg width="19" height="34" viewBox="0 0 19 34" fill="none" xmlns="http://www.w3.org/2000/svg">
<path d="M8.06934 21.8169C8.06934 21.4647 7.78346 21.1789 7.43129 21.1789C7.07912 21.1789 6.79325 21.4647 6.79325 21.8169C6.79325 22.1691 7.07912 22.455 7.43129 22.455C7.78346 22.455 8.06934 22.1691 8.06934 21.8169Z" fill="#F0BB00"/>
<path d="M8.05152 31.7858C8.05152 30.513 8.03966 29.2266 8.05152 28.3917C8.07943 26.3455 8.05152 25.1848 8.05152 23.6947C8.05152 23.6947 7.83939 23.0636 7.41516 23.0636C6.99094 23.0636 6.80073 23.6947 6.80073 23.6947C6.80073 25.3969 6.82361 26.7151 6.80072 28.3917C6.78803 29.2732 6.80073 30.9371 6.80073 31.7858C6.80073 31.7858 6.99091 32.4221 7.41516 32.4221C7.83941 32.4221 8.05152 31.9979 8.05152 31.7858Z" fill="#F0BB00"/>
<path d="M13.949 7.37681H17.0417C17.7042 7.37681 18.2434 6.83775 18.2434 6.17512V1.2056C18.2434 0.542976 17.7043 0.00391107 17.0417 0.00391107H12.7948C12.7541 0.00218755 12.6834 0 12.5843 0C11.783 0 8.99653 0.1581 6.78584 2.19179C4.37284 4.41202 4.60373 7.06784 4.70528 7.72264V10.9602H1.63138C0.968819 10.9602 0.429688 11.4993 0.429688 12.1619V17.5068C0.429688 18.1694 0.968752 18.7086 1.63138 18.7086H4.52743V32.7385C4.52743 33.4011 5.06649 33.9402 5.72912 33.9402H11.7859C12.4484 33.9402 12.9875 33.4011 12.9875 32.7385V18.7779H16.418C17.0287 18.7779 17.542 18.3203 17.6118 17.7135L18.2355 12.2995C18.2747 11.9594 18.1665 11.6177 17.9387 11.3622C17.7109 11.1068 17.384 10.9603 17.0418 10.9603H12.9878V8.24262C12.9877 7.68108 13.1409 7.37681 13.949 7.37681ZM12.3117 12.3125H16.8728L16.2838 17.4257H12.3115C11.9381 17.4257 11.6354 17.7284 11.6354 18.1018V32.588H5.87953V18.0324C5.87953 17.659 5.57679 17.3563 5.20345 17.3563H1.78179V12.3124H5.38137C5.75471 12.3124 6.05745 12.0097 6.05745 11.6363V7.66769C6.05745 7.62891 6.05414 7.59013 6.04751 7.55188C5.97625 7.14255 5.7215 5.00869 7.70143 3.18693C9.5519 1.48455 11.9068 1.35224 12.5844 1.35224C12.6794 1.35224 12.7359 1.35476 12.7463 1.35529C12.7574 1.35582 12.7685 1.35608 12.7797 1.35608H16.8913V6.02471H13.9491C12.5004 6.02471 11.6355 6.85386 11.6355 8.24262V11.6364C11.6355 12.0098 11.9383 12.3125 12.3117 12.3125Z" fill="#F0BB00"/>
</svg>
