<svg width="35" height="33" viewBox="0 0 35 33" fill="none" xmlns="http://www.w3.org/2000/svg">
<path d="M10.0291 10.1562H3.67003C3.026 10.1562 2.50195 10.6802 2.50195 11.3243V31.7532C2.50195 32.3973 3.02594 32.9213 3.67003 32.9213H10.0291C10.6732 32.9213 11.1972 32.3973 11.1972 31.7532V11.3243C11.1972 10.6803 10.6732 10.1562 10.0291 10.1562ZM9.88289 31.607H3.81636V11.4706H9.88289V31.607Z" fill="#F0BB00"/>
<path d="M10.2834 1.4215C9.3664 0.504911 8.14897 0 6.85531 0C4.17914 0 2.00195 2.17519 2.00195 4.84878C2.00195 7.52341 4.17914 9.69937 6.85531 9.69937C9.52961 9.69937 11.7053 7.52341 11.7053 4.84885C11.7054 3.55545 11.2004 2.33827 10.2834 1.4215ZM6.85531 8.38496C4.90397 8.38496 3.31629 6.79858 3.31629 4.84878C3.31629 2.89989 4.9039 1.31441 6.85531 1.31441C7.79799 1.31441 8.68545 1.68259 9.35409 2.3511C10.0227 3.01954 10.3909 3.90662 10.3909 4.84878C10.391 6.79864 8.80491 8.38496 6.85531 8.38496Z" fill="#F0BB00"/>
<path d="M33.5169 13.1923C32.1295 10.8399 29.6681 9.64719 26.2008 9.64719C23.9671 9.64719 22.344 10.4095 21.264 11.1959C21.2004 10.6114 20.7038 10.1549 20.1027 10.1549H14.0128C13.3688 10.1549 12.8447 10.6789 12.8447 11.3229V31.7519C12.8447 32.3959 13.3687 32.9199 14.0128 32.9199H20.358C21.002 32.9199 21.526 32.396 21.526 31.7519V21.6444C21.526 18.2181 22.4546 17.5687 24.1683 17.5687C25.8437 17.5687 26.3024 18.4824 26.3024 21.8197V31.7522C26.3024 32.3963 26.8264 32.9203 27.4705 32.9203H33.818C34.462 32.9203 34.9861 32.3963 34.9861 31.7522V20.5465C34.9861 18.2823 34.8191 15.4004 33.5169 13.1923ZM33.6717 31.6058H27.6169V21.8196C27.6169 20.4883 27.5799 19.1018 27.1383 18.0651C26.6265 16.8636 25.6272 16.2543 24.1684 16.2543C20.6818 16.2543 20.2118 18.979 20.2118 21.6444V31.6057H14.1591V11.4693H19.9565V12.6498C19.9565 12.9207 20.1227 13.1639 20.3752 13.2622C20.6277 13.3606 20.9146 13.2939 21.0978 13.0943C21.8289 12.2978 23.4641 10.9616 26.2008 10.9616C32.7667 10.9616 33.6718 15.5683 33.6718 20.5465V31.6058H33.6717Z" fill="#F0BB00"/>
<path d="M5.95605 20.4217C5.95605 20.0566 5.65965 19.7602 5.29452 19.7602C4.92938 19.7602 4.63298 20.0566 4.63298 20.4217C4.63298 20.7868 4.92938 21.0832 5.29452 21.0832C5.65965 21.0832 5.95605 20.7868 5.95605 20.4217Z" fill="#F0BB00"/>
<path d="M5.94399 30.7559C5.94399 29.4363 5.9317 28.1026 5.944 27.2369C5.97293 25.1154 5.94399 23.9119 5.94399 22.3669C5.94399 22.3669 5.72405 21.7126 5.2842 21.7126C4.84436 21.7126 4.64714 22.3669 4.64714 22.3669C4.64714 24.1318 4.67087 25.4985 4.64713 27.2369C4.63397 28.1509 4.64714 29.876 4.64714 30.7559C4.64714 30.7559 4.84432 31.4157 5.2842 31.4157C5.72407 31.4157 5.94399 30.9759 5.94399 30.7559Z" fill="#F0BB00"/>
</svg>
