<svg width="34" height="34" viewBox="0 0 34 34" fill="none" xmlns="http://www.w3.org/2000/svg">
<path d="M17 8.10824C18.779 8.10824 20.4985 8.6376 21.9724 9.63929C21.9762 9.64185 21.9801 9.64441 21.984 9.64697L22.0309 9.678C22.037 9.682 22.0433 9.68599 22.0496 9.68998C23.1308 10.3704 24.5066 10.2312 25.3196 9.36073L27.7367 6.78211C28.1888 6.29801 28.4021 5.66203 28.3218 5.03732C28.2455 4.44323 27.9098 3.90649 27.3957 3.55071C27.3841 3.54088 27.3721 3.53115 27.3599 3.52183C24.3671 1.21788 20.7849 0 17.0002 0C10.6969 0 4.94167 3.46243 1.98054 9.03619C0.684929 11.4753 0 14.2293 0 17.0004C0 19.7855 0.690664 22.5508 1.99733 24.9977C2.21731 25.4097 2.45788 25.8182 2.71207 26.212C3.01889 26.6871 3.65272 26.8236 4.12801 26.5167C4.6032 26.21 4.73961 25.5761 4.43279 25.1009C4.20902 24.7543 3.99754 24.395 3.80408 24.0327C2.65543 21.8818 2.04823 19.4501 2.04823 17.0004C2.04823 14.5632 2.65021 12.1414 3.78923 9.99712C6.39417 5.09406 11.4564 2.04823 17.0002 2.04823C20.3148 2.04823 23.4523 3.10983 26.0769 5.11905C26.1213 5.1595 26.169 5.19596 26.2197 5.22801C26.2753 5.26314 26.2895 5.29233 26.2903 5.29816C26.2911 5.3041 26.2847 5.33585 26.241 5.38265L23.8241 7.96117C23.6635 8.13312 23.3578 8.0897 23.1479 7.96097L23.1178 7.9411C21.3043 6.71042 19.1892 6.06 17.0002 6.06C14.7508 6.06 12.5904 6.7392 10.7526 8.02395C8.95989 9.27716 7.59505 11.0156 6.80587 13.051C6.31091 14.3269 6.06 15.6556 6.06 17.0003C6.06 18.3281 6.306 19.6437 6.79122 20.9104C7.57529 22.9561 8.93931 24.704 10.7359 25.9651C12.5773 27.2578 14.7436 27.941 17.0005 27.941C19.1719 27.941 21.2754 27.2998 23.0836 26.0867C24.8047 24.9319 26.1579 23.3278 26.9968 21.4481C27.0044 21.4312 27.0116 21.4141 27.0181 21.3968C27.2356 20.8284 27.1722 20.229 26.8441 19.7522C26.4832 19.2277 25.8364 18.9144 25.1138 18.9144H19.0024C18.8206 18.9144 18.667 18.7608 18.667 18.5789V15.6517C18.667 15.4698 18.8206 15.3161 19.0024 15.3161H21.3841C21.9497 15.3161 22.4082 14.8576 22.4082 14.292C22.4082 13.7263 21.9497 13.2678 21.3841 13.2678H19.0024C17.688 13.2678 16.6187 14.3372 16.6187 15.6517V18.5789C16.6187 19.8934 17.688 20.9626 19.0024 20.9626H24.9614C24.2731 22.3402 23.2357 23.5181 21.9426 24.3857C20.4728 25.3718 18.7639 25.8929 17.0003 25.8929C13.348 25.8929 10.0138 23.5961 8.70376 20.1777C8.30845 19.1459 8.10803 18.0769 8.10803 17.0004C8.10803 15.9102 8.31234 14.8305 8.71523 13.7916C10.054 10.3391 13.3059 8.10824 17 8.10824Z" fill="#F0BB00"/>
<path d="M25.7648 13.5677C25.5743 13.3772 25.3101 13.2676 25.0407 13.2676C24.7714 13.2676 24.5072 13.3772 24.3167 13.5677C24.1262 13.7582 24.0166 14.0224 24.0166 14.2918C24.0166 14.5611 24.1262 14.8253 24.3167 15.0158C24.5072 15.2063 24.7714 15.3159 25.0407 15.3159C25.3101 15.3159 25.5743 15.2063 25.7648 15.0158C25.9553 14.8253 26.0648 14.5611 26.0648 14.2918C26.0648 14.0224 25.9553 13.7582 25.7648 13.5677Z" fill="#F0BB00"/>
<path d="M33.9327 15.503C33.7658 14.2487 32.644 13.2663 31.3788 13.2663H29.3398C28.7742 13.2663 28.3157 13.7248 28.3157 14.2904C28.3157 14.856 28.7742 15.3145 29.3398 15.3145H31.3788C31.6123 15.3145 31.8717 15.5418 31.9019 15.7691C31.9023 15.773 31.9513 16.1739 31.9513 16.999C31.9513 21.3685 30.0434 25.5087 26.7167 28.3577C24.0105 30.6749 20.5595 31.9511 16.9991 31.9511C14.6249 31.9511 12.3555 31.4112 10.2538 30.3463C9.74932 30.0907 9.13311 30.2923 8.87739 30.7969C8.62177 31.3013 8.82352 31.9176 9.328 32.1732C11.7193 33.385 14.3002 33.9993 16.9991 33.9993C21.0477 33.9993 24.9719 32.5483 28.0491 29.9134C31.8307 26.6746 33.9996 21.9675 33.9996 16.999C33.9996 16.0348 33.9397 15.555 33.9327 15.503Z" fill="#F0BB00"/>
<path d="M6.91715 28.0426C6.8769 28.0057 6.83686 27.9686 6.79692 27.9315C6.38328 27.5457 5.73532 27.5682 5.34943 27.9819C4.96365 28.3954 4.98618 29.0434 5.39982 29.4292C5.44468 29.471 5.48963 29.5127 5.5348 29.554C5.73133 29.7337 5.97886 29.8224 6.22567 29.8224C6.5031 29.8224 6.77971 29.7104 6.98167 29.4895C7.36336 29.0721 7.33448 28.4244 6.91715 28.0426Z" fill="#F0BB00"/>
</svg>
