<svg width="190" height="79" viewBox="0 0 190 79" fill="none" xmlns="http://www.w3.org/2000/svg">
<path d="M39.0294 0C17.4781 0 0 17.4781 0 39.0294C0 60.5807 17.4781 78.1328 39.0294 78.1328C60.5807 78.1328 78.0588 60.5807 78.0588 39.0294C77.9847 17.5521 60.5067 0 39.0294 0ZM33.9193 69.616C20.8107 67.4683 10.5905 57.248 8.44279 44.1395L33.9193 69.616ZM58.5811 63.0987L51.9898 56.5074L69.9863 38.511C69.9863 38.6591 69.9863 38.8813 69.9863 39.0294C69.9863 48.3609 65.7649 57.248 58.5811 63.0987ZM39.0294 7.99843C52.286 7.99843 63.9875 16.3672 68.2829 28.8832L46.2872 50.8789L14.96 19.4777C20.8107 12.2939 29.7719 7.99843 39.0294 7.99843ZM45.1023 69.4679L8.66497 32.9565C9.10933 30.7347 9.77586 28.587 10.6646 26.5874L51.5455 67.4683C49.4718 68.357 47.3241 69.0235 45.1023 69.4679Z" fill="#2C6EB5"/>
<path d="M91.167 29.7721H96.4252V53.1749H105.164V58.211H91.167V29.7721Z" fill="#2C6EB5" stroke="#1D71B8" stroke-width="1.3342" stroke-miterlimit="10"/>
<path d="M107.683 41.4734H105.905V36.9558H107.683V36.7336C107.683 31.9938 110.719 29.3276 115.089 29.3276H116.051V34.4377H115.385C113.607 34.4377 112.793 35.6227 112.793 36.7336V36.9558H116.051V41.4734H112.793V58.2109H107.683V41.4734Z" fill="#2C6EB5" stroke="#1D71B8" stroke-width="1.3342" stroke-miterlimit="10"/>
<path d="M139.898 47.6204C139.898 53.8414 135.084 58.9515 128.566 58.9515C122.049 58.9515 117.235 53.8414 117.235 47.6204C117.235 41.3994 121.975 36.2152 128.566 36.2152C135.158 36.2152 139.898 41.3994 139.898 47.6204ZM122.42 47.6204C122.42 51.1012 124.863 54.0636 128.641 54.0636C132.418 54.0636 134.862 51.0271 134.862 47.6204C134.862 44.1396 132.492 41.1031 128.641 41.1031C124.789 41.1031 122.42 44.1396 122.42 47.6204Z" fill="#2C6EB5" stroke="#1D71B8" stroke-width="1.3342" stroke-miterlimit="10"/>
<path d="M164.56 47.6204C164.56 53.8414 159.746 58.9515 153.229 58.9515C146.712 58.9515 141.898 53.8414 141.898 47.6204C141.898 41.3994 146.638 36.2152 153.229 36.2152C159.82 36.2152 164.56 41.3994 164.56 47.6204ZM147.082 47.6204C147.082 51.1012 149.526 54.0636 153.303 54.0636C157.08 54.0636 159.524 51.0271 159.524 47.6204C159.524 44.1396 157.154 41.1031 153.303 41.1031C149.452 41.1031 147.082 44.1396 147.082 47.6204Z" fill="#2C6EB5" stroke="#1D71B8" stroke-width="1.3342" stroke-miterlimit="10"/>
<path d="M188.926 58.211H184.26V55.3226H184.186C182.853 57.1741 180.631 58.8775 177.15 58.8775C171.448 58.8775 166.634 54.1377 166.634 47.6204C166.634 40.9551 171.522 36.2153 177.373 36.2153C181.298 36.2153 183.223 38.363 183.816 39.1036H183.89V29.7721H189V58.211H188.926ZM171.744 47.5464C171.744 51.2494 174.262 54.0636 177.891 54.0636C181.52 54.0636 184.112 51.3234 184.112 47.5464C184.112 43.7694 181.446 41.0292 177.891 41.0292C174.41 41.1032 171.744 43.6953 171.744 47.5464Z" fill="#2C6EB5" stroke="#1D71B8" stroke-width="1.3342" stroke-miterlimit="10"/>
</svg>
