<svg width="18" height="18" viewBox="0 0 18 18" fill="none" xmlns="http://www.w3.org/2000/svg">
<path d="M18 8.07272C18 7.10671 17.2101 6.3208 16.2391 6.3208H11.9925L12.6107 4.64279C12.6127 4.63737 12.6146 4.63198 12.6164 4.62653C12.9144 3.73733 12.8394 2.80434 12.3995 1.92819C12.0676 1.26771 11.4005 0.857422 10.6585 0.857422H10.4522C9.95256 0.857422 9.52995 1.24578 9.48997 1.74144C9.42015 2.60822 9.04648 3.42921 8.43782 4.05349L5.03687 7.48877H4.69564V6.90479C4.69564 6.58229 4.43285 6.3208 4.10868 6.3208H0.586969C0.262793 6.3208 0 6.58229 0 6.90479V17.4163C0 17.7388 0.262793 18.0003 0.586969 18.0003H4.10871C4.43285 18.0003 4.69568 17.7388 4.69568 17.4163V16.8323H14.4783C15.4492 16.8323 16.2392 16.0464 16.2392 15.0804C16.2392 14.7683 16.1568 14.475 16.0123 14.2209C16.5014 13.9093 16.8261 13.3639 16.8261 12.7445C16.8261 12.4324 16.7437 12.1391 16.5993 11.885C17.0884 11.5734 17.4131 11.028 17.4131 10.4086C17.4131 10.0964 17.3307 9.80316 17.1863 9.54908C17.6753 9.23754 18 8.69217 18 8.07272ZM3.52174 8.07272V16.2483V16.8323H1.1739V7.48877H3.52174V8.07272ZM16.2391 8.65671H15.6522H14.4783C14.1541 8.65671 13.8913 8.91816 13.8913 9.24069C13.8913 9.56322 14.1541 9.82467 14.4783 9.82467H15.6522C15.9758 9.82467 16.2391 10.0867 16.2391 10.4087C16.2391 10.7307 15.9758 10.9926 15.6522 10.9926H15.0652H13.8913C13.5671 10.9926 13.3043 11.2541 13.3043 11.5766C13.3043 11.8992 13.5671 12.1606 13.8913 12.1606H15.0652C15.3888 12.1606 15.6522 12.4226 15.6522 12.7446C15.6522 13.0666 15.3888 13.3286 15.0652 13.3286H14.4782C14.4475 13.3286 14.4175 13.3317 14.388 13.3362H13.2653C12.9412 13.3362 12.6784 13.5976 12.6784 13.9202C12.6784 14.2426 12.9412 14.5041 13.2653 14.5041H14.4392C14.4656 14.5041 14.4913 14.5018 14.5167 14.4985C14.8224 14.5183 15.0652 14.7714 15.0652 15.0805C15.0652 15.4025 14.8019 15.6645 14.4782 15.6645H4.69564V8.65667H5.28261C5.43983 8.65667 5.59044 8.59392 5.7008 8.48248L9.27573 4.87144C9.27671 4.87046 9.2777 4.86945 9.27861 4.86847C10.033 4.09553 10.5125 3.09217 10.641 2.02529H10.6585C10.9529 2.02529 11.2178 2.18821 11.3494 2.45026C11.6501 3.04911 11.7025 3.65433 11.5053 4.24936L10.6011 6.70377C10.535 6.88289 10.5612 7.08279 10.671 7.23917C10.7808 7.39556 10.9604 7.48874 11.1522 7.48874H16.2391C16.5628 7.48874 16.8261 7.75072 16.8261 8.07272C16.8261 8.39472 16.5628 8.65671 16.2391 8.65671Z" fill="#2C6EB5"/>
</svg>
