<svg width="76" height="76" viewBox="0 0 76 76" fill="none" xmlns="http://www.w3.org/2000/svg">
<path d="M16.0921 43.7112L43.711 16.0913L75.8943 16.0923L16.0918 75.894L16.0921 43.7112Z" fill="#2C6EB5"/>
<path d="M29.4237 41.3962L37.3433 49.3158L36.6532 50.006L25.1358 48.6709L31.562 55.0971L30.7248 55.9343L22.8052 48.0147L23.4953 47.3246L35.024 48.6483L28.5978 42.2221L29.4237 41.3962ZM44.8044 40.4065L45.5285 41.1306L39.9282 46.7309L32.0086 38.8113L37.4392 33.3807L38.1633 34.1048L33.5699 38.6982L36.387 41.5153L40.4826 37.4197L41.1954 38.1325L37.0998 42.2281L40.0414 45.1696L44.8044 40.4065ZM50.3389 20.4811L55.5884 31.0707L54.706 31.9532L45.6324 27.5182L50.056 36.6031L49.1849 37.4743L38.5952 32.2247L39.4551 31.3649L48.5513 35.8903L44.105 26.7149L44.8857 25.9343L54.0611 30.4484L49.5356 21.2843L50.3389 20.4811Z" fill="white"/>
</svg>
