<svg width="29" height="26" viewBox="0 0 29 26" fill="none" xmlns="http://www.w3.org/2000/svg">
<path d="M28.88 6.66428C28.7727 6.53353 28.6079 6.45723 28.4335 6.45723H8.04273L6.75172 1.24436C6.56985 0.511618 5.8895 0 5.09764 0H1.69921C0.762213 0 0 0.724126 0 1.61431C0 2.50449 0.762213 3.22862 1.69921 3.22862H3.75177L7.9748 20.2797C8.15667 21.0125 8.83702 21.5241 9.62888 21.5241H10.7632C10.4068 21.9741 10.1953 22.5333 10.1953 23.1384C10.1953 24.622 11.4657 25.8289 13.0273 25.8289C14.5889 25.8289 15.8593 24.622 15.8593 23.1384C15.8593 22.5333 15.6478 21.9741 15.2914 21.5241H20.1656C19.8091 21.9741 19.5976 22.5333 19.5976 23.1384C19.5976 24.622 20.868 25.8289 22.4296 25.8289C23.9912 25.8289 25.2617 24.622 25.2617 23.1384C25.2617 22.5333 25.0501 21.9741 24.6937 21.5241H24.6953C25.6323 21.5241 26.3945 20.8 26.3945 19.9098C26.3945 19.0196 25.6323 18.2955 24.6953 18.2955H10.9748L10.4415 16.1431H13.7619H13.763H13.7639H22.0329H22.034H22.0351H25.2833C26.0641 16.1431 26.7423 15.6403 26.9321 14.9202L28.9831 7.12587C29.0254 6.96507 28.9873 6.79481 28.88 6.66428ZM25.61 14.9202L10.1749 15.0669L8.30934 7.53344H27.708L25.61 14.9202ZM14.7265 23.1384C14.7265 24.0286 13.9643 24.7527 13.0273 24.7527C12.0903 24.7527 11.3281 24.0286 11.3281 23.1384C11.3281 22.2482 12.0903 21.5241 13.0273 21.5241C13.9643 21.5241 14.7265 22.2482 14.7265 23.1384ZM24.1288 23.1384C24.1288 24.0286 23.3666 24.7527 22.4296 24.7527C21.4926 24.7527 20.7304 24.0286 20.7304 23.1384C20.7304 22.2482 21.4926 21.5241 22.4296 21.5241C23.3666 21.5241 24.1288 22.2482 24.1288 23.1384ZM24.6953 19.3717C25.0077 19.3717 25.2617 19.613 25.2617 19.9098C25.2617 20.2066 25.0077 20.4479 24.6953 20.4479H9.62888C9.36493 20.4479 9.13815 20.2772 9.07752 20.033L4.64894 2.15241H1.69921C1.38681 2.15241 1.13281 1.91111 1.13281 1.61431C1.13281 1.31751 1.38681 1.07621 1.69921 1.07621H5.09764C5.3616 1.07621 5.58838 1.24688 5.649 1.49113L9.17133 15.7128C9.17156 15.7136 9.17178 15.7145 9.172 15.7155L10.0776 19.3717H24.6953Z" fill="white"/>
<path d="M11.5664 12.7344C11.2538 12.7344 11 12.9755 11 13.2725C11 13.5695 11.2538 13.8106 11.5664 13.8106C11.879 13.8106 12.1328 13.5695 12.1328 13.2725C12.1328 12.9755 11.879 12.7344 11.5664 12.7344Z" fill="white"/>
<path d="M20.4441 12.5931C19.3143 12.5931 18.1723 12.6031 17.4312 12.5931C15.6147 12.5696 14.5843 12.5931 13.2615 12.5931C13.2615 12.5931 12.7013 12.772 12.7013 13.1298C12.7013 13.4876 13.2615 13.648 13.2615 13.648C14.7726 13.648 15.9428 13.6287 17.4312 13.648C18.2137 13.6587 19.6908 13.648 20.4441 13.648C20.4441 13.648 21.009 13.4876 21.009 13.1298C21.009 12.772 20.6324 12.5931 20.4441 12.5931Z" fill="white"/>
</svg>
