<svg width="27" height="26" viewBox="0 0 27 26" fill="none" xmlns="http://www.w3.org/2000/svg">
<path d="M12.7836 19.7862C12.5858 19.9839 12.5858 20.3048 12.7836 20.5029C12.9818 20.7007 13.3026 20.7007 13.5002 20.5029C13.6984 20.3048 13.6984 19.9839 13.5002 19.7862C13.3026 19.588 12.9818 19.588 12.7836 19.7862Z" fill="#2E2E2E"/>
<path d="M25.7823 18.906L21.9336 15.6334C21.9158 15.6183 21.897 15.6045 21.8774 15.592C20.8677 14.9492 19.5713 15.0916 18.7248 15.9379L16.6264 18.0361C16.4811 18.1816 16.2642 18.2246 16.0741 18.1462C13.7047 17.166 11.7582 15.6904 10.2887 13.7607C9.16813 12.2893 8.76418 11.12 8.71092 10.9552C8.70458 10.92 8.69448 10.8849 8.68022 10.8507C8.60161 10.6606 8.64458 10.4442 8.79032 10.2988L10.8885 8.20004C11.735 7.35353 11.8772 6.05712 11.2344 5.04743C11.2293 5.03931 11.2239 5.03139 11.2184 5.02347L8.43904 1.16117C7.5646 -0.195435 5.65989 -0.400382 4.51674 0.742566L4.09655 1.16276C4.09635 1.16315 4.09596 1.16355 4.09556 1.16375L2.59539 2.66391C0.806518 4.45299 0.51385 7.14125 1.74927 10.4386C2.80747 13.2631 4.92584 16.3543 7.7141 19.1426C10.5683 21.9968 13.7431 24.1544 16.6535 25.2179C19.5343 26.2704 22.5986 26.4001 24.7674 24.231L26.1823 22.8164C27.3203 21.6782 27.1216 19.786 25.7823 18.906ZM21.3055 16.4298L25.1508 19.6996C25.1684 19.7147 25.1872 19.7285 25.2068 19.741C26.0282 20.264 26.1526 21.4125 25.4652 22.0996L25.3603 22.2047L18.8018 17.2943L19.4416 16.6547C19.9416 16.1545 20.7036 16.064 21.3055 16.4298ZM7.59213 1.71819C7.59727 1.72631 7.60262 1.73443 7.60817 1.74215L10.3863 5.60307C10.7637 6.20721 10.6764 6.97848 10.1717 7.48323L9.55169 8.10341L5.11455 1.57839L5.23356 1.45938C5.92364 0.769298 7.07115 0.899791 7.59213 1.71819ZM17.0012 24.2657C14.2266 23.2518 11.1829 21.1778 8.43092 18.4258C5.74266 15.7377 3.70686 12.7748 2.69836 10.083C1.94135 8.06242 1.43344 5.25951 3.31221 3.38093L4.38486 2.30808L8.822 8.8331L8.0737 9.5818C7.64797 10.0067 7.51411 10.6356 7.72658 11.1956C7.88658 11.8522 8.6228 13.2152 9.36556 14.2195C10.4586 15.6975 12.4425 17.7408 15.6866 19.083C16.2567 19.3188 16.9068 19.1893 17.3432 18.7531L18.0777 18.0185L24.6361 22.9289L24.0506 23.5142C22.0366 25.5284 19.1056 25.0346 17.0012 24.2657Z" fill="#2E2E2E"/>
<path d="M11.8317 18.5761C11.2962 18.1066 10.3701 17.2991 9.8824 16.7973C8.68638 15.5683 7.43156 14.0784 6.68543 13.002C6.52603 12.7719 6.2102 12.7145 5.9801 12.8741C5.75001 13.0335 5.69278 13.3493 5.85218 13.5794C6.79315 14.937 8.1757 16.497 9.15568 17.5041C9.67052 18.034 10.6046 18.8486 11.1632 19.3383C11.3733 19.5224 11.6935 19.5022 11.8786 19.2914C12.0631 19.0811 12.0422 18.7607 11.8317 18.5761Z" fill="#2E2E2E"/>
</svg>
