<svg width="47" height="42" viewBox="0 0 47 42" fill="none" xmlns="http://www.w3.org/2000/svg">
<path d="M28.0222 16.195C23.8622 16.195 20.4778 19.5681 20.4778 23.7141C20.4778 27.8602 23.8622 31.2332 28.0222 31.2332C32.1822 31.2332 35.5666 27.8602 35.5666 23.7141C35.5666 19.5681 32.1822 16.195 28.0222 16.195ZM28.0222 29.5243C24.8076 29.5243 22.1924 26.9179 22.1924 23.7141C22.1924 20.5103 24.8076 17.9039 28.0222 17.9039C31.2368 17.9039 33.852 20.5103 33.852 23.7141C33.852 26.9179 31.2368 29.5243 28.0222 29.5243Z" fill="#F0BB00"/>
<path d="M5.95522 7.3749C5.73416 6.98111 5.20905 6.82704 4.78188 7.03068C4.35472 7.23464 4.18773 7.71944 4.40879 8.11355L6.75241 12.2906C6.9041 12.5611 7.21087 12.7265 7.53872 12.7246C7.86862 12.7199 8.16757 12.5435 8.31041 12.269L9.7293 9.54346L11.2703 12.2906C11.4203 12.5573 11.7185 12.7246 12.0437 12.7246H12.0566C12.3868 12.7199 12.6854 12.5435 12.8286 12.269L15.0029 8.0919C15.211 7.69214 15.0284 7.21205 14.5951 7.02002C14.1615 6.82798 13.6415 6.99648 13.4333 7.39656L12.0144 10.1221L10.4731 7.3749C10.3214 7.10442 10.0153 6.93843 9.68713 6.94094C9.35689 6.94565 9.05794 7.122 8.9151 7.39656L7.49655 10.1221L5.95522 7.3749Z" fill="#F0BB00"/>
<path d="M38.0379 30.4153C37.8375 30.6304 37.7221 30.9286 37.7221 31.2332C37.7221 31.5373 37.8375 31.8355 38.0379 32.0511C38.2395 32.2662 38.5165 32.39 38.7999 32.39C39.0832 32.39 39.3615 32.2662 39.5619 32.0511C39.7636 31.8355 39.8777 31.5373 39.8777 31.2332C39.8777 30.9286 39.7636 30.6304 39.5619 30.4153C39.3615 30.2002 39.0845 30.0764 38.7999 30.0764C38.5165 30.0764 38.2383 30.2002 38.0379 30.4153Z" fill="#F0BB00"/>
<path fill-rule="evenodd" clip-rule="evenodd" d="M46.3443 3.66825V15.7735C46.3443 17.796 44.7203 19.4417 42.7236 19.4417H39.133C39.5821 20.7027 39.8275 22.0611 39.8275 23.4768C39.8275 27.2224 38.1133 30.5693 35.4388 32.7563L42.3849 39.794C42.8757 40.2913 43.6744 40.2913 44.1652 39.794C44.6559 39.2965 44.6559 38.4872 44.1652 37.99L40.4165 34.1252C40.0629 33.7669 40.0629 33.1145 40.4165 32.7563C40.7697 32.3981 41.3603 32.3984 41.7139 32.7563L45.4451 36.6929C46.642 37.9055 46.642 39.8782 45.4451 41.0908C44.8469 41.6969 44.0609 42 43.2748 42C42.4888 42 41.7028 41.6969 41.1046 41.0908L33.9206 33.8124C32.1941 34.8211 30.1925 35.3986 28.0604 35.3986C21.5719 35.3986 16.2933 30.0506 16.2933 23.4768C16.2933 22.0611 16.5387 20.7027 16.9877 19.4417H3.6207C1.6244 19.4417 6.10352e-05 17.7964 6.10352e-05 15.7735V3.66825C6.10352e-05 1.6457 1.6244 0 3.6207 0H6.06469H7.33115H15.2057H16.293H42.7236C44.7199 0 46.3443 1.6457 46.3443 3.66825ZM16.293 1.83412L15.2057 1.83412C15.2055 1.83412 15.2054 1.83412 15.2052 1.83412H7.33162C7.33146 1.83412 7.33131 1.83412 7.33115 1.83412L6.06469 1.83412L3.6207 1.83412C2.62255 1.83412 1.81038 2.65697 1.81038 3.66825V15.7735C1.81038 16.7847 2.62255 17.6076 3.6207 17.6076H17.8215C19.0261 15.4589 20.8704 13.7251 23.0901 12.6726C23.0544 12.6272 23.0215 12.5795 22.9947 12.5269L21.3926 9.39093L19.9175 12.5021C19.769 12.8156 19.4582 13.0169 19.1152 13.0223C18.7729 13.0244 18.4554 12.8356 18.2977 12.5269L15.8612 7.75813C15.6314 7.3082 15.805 6.75509 16.2491 6.52224C16.6932 6.2894 17.2391 6.46529 17.4689 6.91486L19.0714 10.0511L20.5461 6.93958C20.6946 6.62613 21.0054 6.42481 21.3484 6.41979C21.6917 6.41657 22.0082 6.60607 22.1659 6.91486L23.7683 10.0511L25.2434 6.93958C25.4595 6.48284 26.0004 6.29047 26.4509 6.51006C26.9017 6.7293 27.0916 7.27703 26.8752 7.73341L24.8495 12.0063C25.8707 11.7126 26.948 11.555 28.0607 11.555C28.6353 11.555 29.2003 11.598 29.753 11.6789L27.7496 7.75813C27.5201 7.3082 27.6934 6.75509 28.1375 6.52224C28.5816 6.2894 29.1278 6.46529 29.3577 6.91486L30.9597 10.0511L32.4348 6.93958C32.5834 6.62613 32.8938 6.42481 33.2371 6.41979C33.579 6.41657 33.8969 6.60607 34.0546 6.91486L35.657 10.0511L37.1318 6.93958C37.3482 6.48284 37.8891 6.29047 38.3396 6.51006C38.7901 6.7293 38.9799 7.27703 38.7635 7.73341L36.5031 12.5021C36.3546 12.8156 36.0438 13.0169 35.7008 13.0223H35.6871C35.349 13.0223 35.0389 12.8317 34.8834 12.5269L33.281 9.39093L31.9391 12.2213C34.6465 13.1817 36.9048 15.1175 38.3018 17.6115C38.3272 17.6094 38.3527 17.6076 38.3788 17.6076H42.7236C43.7218 17.6076 44.5339 16.7847 44.5339 15.7735V3.66825C44.5339 2.65697 43.7218 1.83412 42.7236 1.83412L16.293 1.83412ZM18.1036 23.4768C18.1036 29.039 22.5704 33.5645 28.0604 33.5645C33.5507 33.5645 38.0171 29.039 38.0171 23.4768C38.0171 17.9146 33.5504 13.3891 28.0604 13.3891C22.5704 13.3891 18.1036 17.9146 18.1036 23.4768Z" fill="#F0BB00"/>
</svg>
