<svg width="41" height="42" viewBox="0 0 41 42" fill="none" xmlns="http://www.w3.org/2000/svg">
<path d="M29.6677 32.3433C29.186 32.3433 28.7951 32.7092 28.7951 33.1601C28.7951 33.6109 29.186 33.9768 29.6677 33.9768C30.1493 33.9768 30.5402 33.6109 30.5402 33.1601C30.5402 32.7092 30.1493 32.3433 29.6677 32.3433Z" fill="#F0BB00"/>
<path d="M31.8156 29.7021L27.6683 28.4083L26.1794 25.621C27.5207 24.3431 28.452 22.6523 28.7661 20.8887L28.9517 19.8469H30.5397C31.9831 19.8469 33.1574 18.7478 33.1574 17.3967V12.2512C33.1574 5.49589 27.2859 0 20.069 0C12.8335 0 6.9805 5.48013 6.9805 12.2512V17.3967C6.9805 18.4614 7.71005 19.3693 8.72563 19.7065V20.6637C8.72563 22.0148 9.89993 23.1139 11.3433 23.1139H12.1096C12.4879 23.8831 12.9775 24.5954 13.5732 25.2354C13.6968 25.3683 13.8257 25.4972 13.9577 25.6226L12.4696 28.4083L8.32225 29.7021C3.50003 31.2072 0 35.959 0 41.0007C0 41.4518 0.390647 41.8174 0.872563 41.8174H39.2653C39.7472 41.8174 40.1379 41.4518 40.1379 41.0007C40.1379 35.959 36.638 31.2072 31.8156 29.7021ZM31.4123 17.3967C31.4123 17.8471 31.0208 18.2135 30.5397 18.2135H29.208C29.4298 16.6053 29.5776 14.8939 29.637 13.2084C29.6388 13.1609 29.6402 13.1147 29.6418 13.0679H31.4123V17.3967ZM9.59819 18.2135C9.11706 18.2135 8.72563 17.8471 8.72563 17.3967V13.0679H10.4968C10.4996 13.1531 10.5027 13.2387 10.5061 13.3249C10.5062 13.3278 10.5064 13.3307 10.5064 13.3336C10.5064 13.3339 10.5064 13.3341 10.5064 13.3344C10.5675 14.9737 10.7134 16.6406 10.9302 18.2134H9.59819V18.2135ZM11.3433 21.4804C10.8622 21.4804 10.4708 21.114 10.4708 20.6637V19.8469H11.1861L11.3718 20.889C11.4072 21.0871 11.4507 21.2844 11.5011 21.4804H11.3433ZM10.4722 11.4345H8.75879C9.20074 5.96054 14.0812 1.63349 20.069 1.63349C26.0301 1.63349 30.932 5.95996 31.379 11.4345H29.6658C29.6029 6.92381 25.6787 3.26699 20.85 3.26699H19.2881C14.4594 3.26699 10.535 6.92381 10.4722 11.4345ZM19.288 4.90048H20.8499C24.7598 4.90048 27.9243 7.89394 27.922 11.5496C27.922 11.8066 27.9198 12.0304 27.9152 12.234C27.9152 12.2367 27.9151 12.2394 27.9151 12.2421L26.8237 12.0961C23.8588 11.6998 21.0592 10.3896 18.9408 8.40669C18.7771 8.25355 18.5552 8.16747 18.3238 8.16747C15.9805 8.16747 13.7373 9.16684 12.2545 10.8552C12.6199 7.52951 15.6235 4.90048 19.288 4.90048ZM13.3101 21.4804C12.8733 20.1203 12.3735 16.1183 12.263 13.5537L13.4374 12.0879C14.516 10.7423 16.194 9.90616 17.979 9.81019C20.3277 11.9024 23.3661 13.284 26.577 13.7131L27.8616 13.8849C27.7757 15.5907 27.6002 17.3025 27.3488 18.8767C27.3487 18.8772 27.3487 18.8778 27.3486 18.8784C27.2686 19.3845 27.2056 19.7102 27.0447 20.62C26.5826 23.2144 24.5145 25.5605 21.7843 26.1994C20.6607 26.462 19.477 26.4619 18.354 26.1994C16.6493 25.8005 15.0862 24.6965 14.0774 23.1139H15.8562C16.2164 24.0645 17.1863 24.7474 18.3238 24.7474H20.069C21.5152 24.7474 22.6866 23.651 22.6866 22.2972C22.6866 20.9461 21.5123 19.8469 20.069 19.8469H18.3238C17.161 19.8469 16.2054 20.55 15.8547 21.4804H13.3101ZM18.2504 27.8524C18.8489 27.9704 19.4591 28.0308 20.069 28.0308C20.5463 28.0308 21.0238 27.9933 21.4959 27.9208L19.954 29.4471L18.2504 27.8524ZM18.7544 30.6345L15.9868 33.374C15.2249 32.0089 14.5702 30.5881 14.0333 29.1337L15.0726 27.188L18.7544 30.6345ZM24.9174 26.9113L26.1045 29.1336C25.5666 30.5905 24.9118 32.0117 24.1506 33.3752L21.1884 30.6025L24.9174 26.9113ZM17.4513 22.2972C17.4513 21.8463 17.842 21.4804 18.3238 21.4804H20.069C20.5501 21.4804 20.9415 21.8468 20.9415 22.2972C20.9415 22.7482 20.5507 23.1139 20.069 23.1139H18.3238C17.8427 23.1139 17.4513 22.7475 17.4513 22.2972ZM1.78003 40.1839C2.12583 36.1379 5.00258 32.4602 8.87414 31.2518L12.5471 30.106C13.22 31.8477 14.0537 33.5406 15.0307 35.1486C15.0323 35.1514 15.0339 35.1542 15.0356 35.1569C15.0356 35.1569 15.0357 35.1569 15.0357 35.157C15.7495 36.3322 16.553 37.4807 17.424 38.5709L18.4975 40.1839H1.78003ZM20.069 39.4559L18.8856 37.6776C18.8723 37.6577 18.8582 37.6383 18.8432 37.6195C18.1366 36.7373 17.4774 35.8146 16.8771 34.8702L19.9889 31.7899L23.2679 34.8591C22.6635 35.8103 22.0021 36.7369 21.2949 37.6194C21.2521 37.6727 21.3128 37.5886 20.069 39.4559ZM21.6404 40.1839L22.7138 38.571C23.5887 37.4766 24.3979 36.3189 25.1189 35.1299C25.1233 35.1227 25.1274 35.1154 25.1317 35.1082C25.1323 35.1073 25.1328 35.1065 25.1333 35.1056C26.0979 33.5129 26.9228 31.8347 27.5908 30.106L31.2637 31.2518C35.1353 32.4602 38.0121 36.1379 38.3579 40.1839H21.6404Z" fill="#F0BB00"/>
<path d="M35.7354 36.8787C35.1523 35.7862 34.2981 34.8155 33.2653 34.0718C32.8833 33.7966 32.3355 33.8635 32.0417 34.2211C31.7478 34.5787 31.8193 35.0914 32.2012 35.3665C33.0261 35.9605 33.7083 36.7359 34.1742 37.6087C34.3899 38.0129 34.9143 38.1756 35.3447 37.9744C35.7757 37.7728 35.9507 37.2823 35.7354 36.8787Z" fill="#F0BB00"/>
</svg>
