<svg width="31" height="42" viewBox="0 0 31 42" fill="none" xmlns="http://www.w3.org/2000/svg">
<path d="M11.5763 12.446V14.621H15.5263V29.946H18.0013V12.446H11.5763Z" fill="#F0BB00"/>
<path d="M3.29876 0C1.48259 0 0 1.62728 0 3.62069V38.3793C0 40.3727 1.48259 42 3.29876 42H27.0498C28.866 42 30.3486 40.3727 30.3486 38.3793V10.8621C30.3486 10.6793 30.2857 10.5033 30.1723 10.3694L21.5955 0.231434C21.4707 0.0838551 21.2955 0 21.1121 0H3.29876ZM3.29876 1.44827H19.7926V10.8621C19.7926 11.2619 20.088 11.5862 20.4523 11.5862H29.0291V38.3793C29.0291 39.5953 28.1577 40.5517 27.0498 40.5517H3.29876C2.1909 40.5517 1.3195 39.5953 1.3195 38.3793V3.62069C1.3195 2.40472 2.1909 1.44827 3.29876 1.44827ZM21.1121 1.78833L28.176 10.1379H21.1121V1.78833Z" fill="#F0BB00"/>
<path d="M4.14185 39.2904C4.4825 39.2904 4.75903 38.9869 4.75903 38.613C4.75903 38.2391 4.4825 37.9355 4.14185 37.9355C3.80119 37.9355 3.52466 38.2391 3.52466 38.613C3.52466 38.9869 3.80119 39.2904 4.14185 39.2904Z" fill="#F0BB00"/>
<path d="M12.3176 37.9355H6.45853C6.20169 37.9355 5.99353 38.2388 5.99353 38.613C5.99353 38.9871 6.20169 39.2904 6.45853 39.2904H12.3176C12.5744 39.2904 12.7826 38.9871 12.7826 38.613C12.7826 38.2388 12.5744 37.9355 12.3176 37.9355Z" fill="#F0BB00"/>
</svg>
