<svg width="33" height="44" viewBox="0 0 33 44" fill="none" xmlns="http://www.w3.org/2000/svg">
<path d="M3.43323 16.0418C3.43323 23.0251 9.20878 28.7064 16.308 28.7064C23.4072 28.7064 29.1828 23.0251 29.1828 16.0418C29.1828 9.05846 23.4072 3.3772 16.308 3.3772C9.20878 3.3772 3.43323 9.05846 3.43323 16.0418ZM16.308 5.06581C22.4608 5.06581 27.4662 9.98951 27.4662 16.0418C27.4662 22.0941 22.4608 27.0178 16.308 27.0178C10.1553 27.0178 5.14987 22.0941 5.14987 16.0418C5.14987 9.98951 10.1553 5.06581 16.308 5.06581Z" fill="#F0BB00"/>
<path d="M8.35912 14.5367L11.6861 17.7612L10.9207 22.2931C10.8674 22.6087 10.9998 22.9267 11.263 23.1146C11.5258 23.3026 11.8742 23.328 12.1629 23.1809L16.308 21.0636L20.4527 23.1809C20.739 23.327 21.0874 23.3043 21.3526 23.1146C21.6158 22.9267 21.7482 22.6087 21.6949 22.2931L20.9295 17.7612L24.2565 14.5367C24.4881 14.3124 24.571 13.9786 24.4704 13.6742C24.3698 13.3702 24.1032 13.1482 23.7817 13.1004L19.1645 12.4167L17.0754 8.30695C16.9302 8.02101 16.6328 7.84027 16.308 7.84027C15.9827 7.84027 15.6857 8.02101 15.5402 8.30695L13.451 12.4167L8.83387 13.1004C8.51234 13.1479 8.24579 13.3702 8.14521 13.6742C8.04462 13.9786 8.12777 14.3124 8.35912 14.5367ZM14.1474 14.0212C14.4237 13.9803 14.6624 13.8098 14.7875 13.5641L16.308 10.5724L17.8285 13.5641C17.9535 13.8098 18.1922 13.9803 18.4685 14.0212L21.829 14.5189L19.4073 16.8655C19.2085 17.0584 19.1173 17.3344 19.1629 17.6055L19.7201 20.9039L16.7033 19.3631C16.5795 19.2998 16.4437 19.2681 16.308 19.2681C16.1722 19.2681 16.0364 19.2998 15.9123 19.3631L12.8955 20.9039L13.4527 17.6055C13.4986 17.3344 13.4074 17.0584 13.2083 16.8655L10.7869 14.5189L14.1474 14.0212Z" fill="#F0BB00"/>
<path d="M17.1659 0.844307C17.1659 1.31065 16.7816 1.68861 16.3075 1.68861C15.8335 1.68861 15.4492 1.31065 15.4492 0.844307C15.4492 0.377959 15.8335 0 16.3075 0C16.7816 0 17.1659 0.377959 17.1659 0.844307Z" fill="#F0BB00"/>
<path d="M12.2629 0.497676C5.04262 2.31063 0 8.70262 0 16.0418C0 20.6001 1.94832 24.8952 5.36852 27.937L0.19748 36.9015C0.0311811 37.1901 0.0519686 37.5476 0.250455 37.8154C0.448941 38.0835 0.788245 38.2125 1.1185 38.1449L6.99094 36.9453L9.05493 42.6665C9.16691 42.9779 9.45358 43.1959 9.78819 43.2252C10.1228 43.2546 10.4437 43.0887 10.6096 42.8014L16.3081 32.9468L22.0062 42.8014C22.1597 43.0669 22.4454 43.2282 22.7518 43.2282C22.777 43.2282 22.8025 43.2272 22.8276 43.2252C23.1622 43.1959 23.4489 42.9775 23.5612 42.6665L25.6248 36.9453L31.4973 38.1449C31.8272 38.2121 32.1668 38.0832 32.3653 37.8154C32.5642 37.5476 32.5846 37.1901 32.4183 36.9015L27.2473 27.937C30.6675 24.8952 32.6158 20.6001 32.6158 16.0418C32.6158 8.70262 27.5732 2.31063 20.3532 0.497676C19.8936 0.382243 19.4265 0.654994 19.3092 1.10683C19.1918 1.55867 19.4691 2.01842 19.9284 2.13385C26.3879 3.75584 30.8995 9.47503 30.8995 16.0418C30.8995 24.034 24.3008 30.395 16.3081 30.395C8.3096 30.395 1.71664 24.0288 1.71664 16.0418C1.71664 9.47503 6.22784 3.75584 12.6874 2.13385C13.1467 2.01842 13.424 1.55867 13.307 1.10683C13.1896 0.654994 12.7226 0.382243 12.2629 0.497676ZM10.0454 40.3625L8.35855 35.6868C8.21505 35.2891 7.79528 35.0565 7.37517 35.1423L2.62659 36.1123L6.71903 29.0174C9.10522 30.7239 11.9306 31.7634 14.8687 32.0207L10.0454 40.3625ZM25.2406 35.1423C24.8208 35.0565 24.4007 35.2891 24.2572 35.6868L22.5708 40.3625L17.7471 32.0207C20.6855 31.7634 23.5106 30.7239 25.8971 29.0174L29.9895 36.1123L25.2406 35.1423Z" fill="#F0BB00"/>
</svg>
