<svg width="43" height="42" viewBox="0 0 43 42" fill="none" xmlns="http://www.w3.org/2000/svg">
<path d="M37.3191 13.8993L41.9631 9.25231C42.1006 9.11466 42.1647 8.9209 42.1363 8.72927C42.1077 8.53757 41.99 8.37039 41.8184 8.2781L26.5709 0.0751406C26.3297 -0.0545508 26.0312 -0.0116485 25.8373 0.180961L21.1564 4.82713L16.4758 0.181289C16.3593 0.0648047 16.2031 0 16.0387 0C15.9353 0 15.8337 0.026168 15.7428 0.0754687L12.2572 2.00358C12.1118 2.08233 12.006 2.21194 11.9589 2.36944C11.9118 2.52694 11.9291 2.69346 12.0077 2.83784C12.1167 3.03635 12.3258 3.1603 12.5531 3.1603C12.6556 3.1603 12.7581 3.13405 12.8481 3.08565L15.9263 1.37566L20.1303 5.54851L5.98111 13.1395L1.81263 8.96823L8.32722 5.37398C8.4735 5.29605 8.57929 5.16644 8.6264 5.00894C8.6735 4.85144 8.65615 4.68492 8.57681 4.54054C8.46855 4.34203 8.25946 4.21816 8.03218 4.21816C7.92971 4.21816 7.82805 4.24433 7.73714 4.29272L0.49528 8.27843C0.324207 8.3694 0.2052 8.53847 0.177101 8.7296C0.149002 8.91983 0.213547 9.11507 0.350653 9.25214L4.99418 13.8995L0.350323 18.5464C0.212885 18.684 0.148754 18.8778 0.177183 19.0694C0.205695 19.2611 0.323463 19.4283 0.495032 19.5206L5.24814 22.0776V33.1801C5.24806 33.2013 5.24913 33.2225 5.25128 33.2434C5.25219 33.2523 5.25393 33.261 5.25517 33.2699C5.25674 33.2807 5.25798 33.2914 5.26013 33.302C5.26277 33.3154 5.26641 33.3283 5.26988 33.3414C5.27153 33.3473 5.27277 33.3534 5.27459 33.3594C5.27864 33.3726 5.28351 33.3855 5.28839 33.3984C5.29054 33.4042 5.29236 33.41 5.29475 33.4157C5.29955 33.4273 5.30508 33.4384 5.31054 33.4496C5.31393 33.4565 5.31699 33.4635 5.32062 33.4703C5.32558 33.4795 5.33112 33.4883 5.33641 33.4971C5.34153 33.5056 5.34641 33.5141 5.35186 33.5224C5.35641 33.5292 5.36153 33.5357 5.36641 33.5423C5.37343 33.5519 5.38037 33.5617 5.38798 33.571C5.39219 33.5762 5.3969 33.581 5.40128 33.586C5.41004 33.596 5.4188 33.606 5.42822 33.6154C5.4331 33.6203 5.43847 33.6247 5.44351 33.6295C5.45294 33.6383 5.46219 33.6472 5.47219 33.6554C5.48186 33.6633 5.49211 33.6705 5.50219 33.6778C5.50814 33.6822 5.51368 33.6868 5.51979 33.691C5.53756 33.7029 5.55599 33.7139 5.575 33.7241L20.8588 41.9244C20.8808 41.9364 20.9037 41.9468 20.9273 41.9561C20.9324 41.9581 20.9376 41.9599 20.9428 41.9617C20.96 41.968 20.9775 41.9736 20.9954 41.9783C21.0018 41.98 21.0082 41.9817 21.0147 41.9832C21.032 41.9872 21.0496 41.9904 21.0675 41.9929C21.0736 41.9938 21.0795 41.9949 21.0856 41.9957C21.109 41.9983 21.1326 42 21.1566 42C21.1807 42 21.2043 41.9983 21.2276 41.9957C21.2337 41.9949 21.2398 41.9938 21.2459 41.9929C21.2637 41.9904 21.2813 41.9872 21.2986 41.9832C21.3051 41.9817 21.3115 41.98 21.3179 41.9783C21.3357 41.9735 21.3532 41.968 21.3704 41.9617C21.3756 41.9599 21.3808 41.9581 21.3859 41.9561C21.4094 41.9468 21.4323 41.9364 21.4543 41.9244L36.7381 33.7241C36.7571 33.7139 36.7756 33.7029 36.7933 33.691C36.7994 33.6868 36.805 33.6821 36.8109 33.6778C36.8211 33.6705 36.8313 33.6632 36.8409 33.6554C36.8509 33.6472 36.8602 33.6383 36.8696 33.6295C36.8746 33.6247 36.88 33.6203 36.8849 33.6154C36.8943 33.606 36.9031 33.596 36.9118 33.586C36.9162 33.581 36.9209 33.5762 36.9251 33.571C36.9327 33.5618 36.9397 33.552 36.9467 33.5423C36.9516 33.5357 36.9567 33.5292 36.9613 33.5224C36.9667 33.5141 36.9716 33.5057 36.9767 33.4971C36.9821 33.4883 36.9876 33.4795 36.9925 33.4703C36.9961 33.4635 36.9992 33.4565 37.0026 33.4496C37.008 33.4384 37.0136 33.4273 37.0184 33.4157C37.0208 33.41 37.0226 33.4042 37.0247 33.3984C37.0296 33.3856 37.0345 33.3727 37.0385 33.3594C37.0403 33.3535 37.0416 33.3474 37.0432 33.3414C37.0467 33.3283 37.0503 33.3154 37.053 33.302C37.0551 33.2914 37.0564 33.2807 37.0579 33.2699C37.0592 33.261 37.061 33.2523 37.0618 33.2434C37.064 33.2224 37.065 33.2012 37.065 33.1801V22.0776L41.8178 19.5206C41.9889 19.4288 42.1079 19.2598 42.136 19.0695C42.1641 18.8783 42.0996 18.6831 41.9633 18.5461L37.3191 13.8993ZM26.3868 1.37575L40.5005 8.96864L36.3321 13.1398L22.1831 5.54827L26.3868 1.37575ZM6.16062 21.1691L1.81288 18.83L5.98128 14.6589L20.1304 22.2504L15.9266 26.4229L6.16591 21.1719L6.16062 21.1691ZM20.5369 40.3529L6.48772 32.815V22.7446L15.7425 27.7235C15.8355 27.7735 15.937 27.7978 16.0377 27.7978C16.1982 27.7978 16.3569 27.736 16.4762 27.6177L20.5369 23.5871V40.3529ZM21.1567 21.4024L7.17276 13.8995L21.1571 6.39647L35.141 13.8994L21.1567 21.4024ZM36.1552 21.1678C36.1518 21.1696 36.1485 21.1714 36.1452 21.1732L33.9868 22.4359C33.8405 22.5139 33.7347 22.6443 33.6876 22.8018C33.6405 22.9594 33.6578 23.1258 33.7364 23.2703C33.8454 23.4688 34.0545 23.5918 34.2818 23.5918C34.3843 23.5918 34.4868 23.5663 34.5768 23.518L35.8256 22.7446V32.8151L21.7766 40.353V23.5868L25.8376 27.6177C25.955 27.7342 26.1103 27.7982 26.2756 27.7982C26.3781 27.7982 26.4797 27.7719 26.5707 27.7235L30.0304 25.5612C30.1758 25.4833 30.2816 25.3529 30.3287 25.1954C30.3758 25.0379 30.3585 24.8722 30.28 24.7278C30.1709 24.5285 29.9618 24.4054 29.7337 24.4054C29.632 24.4054 29.5296 24.4308 29.4395 24.4801L26.3872 26.4224L22.1832 22.2505L36.3324 14.6586L40.5009 18.8299L36.1552 21.1678Z" fill="#F0BB00"/>
</svg>
