<svg width="11" height="14" viewBox="0 0 11 14" fill="none" xmlns="http://www.w3.org/2000/svg">
<path d="M10.9687 8.19681C10.8007 6.10887 9.78224 4.80044 8.88379 3.64582C8.05186 2.5769 7.33333 1.65383 7.33333 0.292166C7.33333 0.182791 7.26917 0.0828225 7.16742 0.0327014C7.06535 -0.0177205 6.94272 -0.00946268 6.84994 0.0549045C5.5006 0.976553 4.37476 2.52992 3.98148 4.01206C3.70846 5.04394 3.67234 6.20397 3.66727 6.97011C2.42117 6.71606 2.1389 4.93686 2.13592 4.91747C2.12188 4.82519 2.06282 4.74488 1.97688 4.70102C1.89005 4.65773 1.78799 4.65459 1.69996 4.69618C1.63462 4.72637 0.096078 5.47258 0.00655979 8.45198C0.000286352 8.5511 0 8.65052 0 8.74992C0 11.6444 2.46741 13.9996 5.5 13.9996C5.50418 13.9998 5.50865 14.0004 5.51223 13.9996C5.51343 13.9996 5.51461 13.9996 5.5161 13.9996C8.54124 13.9913 11 11.6393 11 8.74992C11 8.60437 10.9687 8.19681 10.9687 8.19681ZM5.5 13.4163C4.48903 13.4163 3.66667 12.5801 3.66667 11.5522C3.66667 11.5172 3.66638 11.4818 3.66904 11.4385C3.68128 11.0051 3.76753 10.7092 3.86212 10.5123C4.03938 10.8758 4.35626 11.2098 4.871 11.2098C5.03989 11.2098 5.17656 11.0794 5.17656 10.9182C5.17656 10.503 5.18553 10.0239 5.29384 9.59153C5.39023 9.20817 5.62057 8.80031 5.91241 8.47336C6.04221 8.89774 6.29527 9.2412 6.54234 9.57644C6.89594 10.056 7.26146 10.5519 7.32563 11.3975C7.32949 11.4477 7.33339 11.4981 7.33339 11.5522C7.33333 12.58 6.51097 13.4163 5.5 13.4163Z" fill="#F0BB00"/>
</svg>
