<svg width="26" height="26" viewBox="0 0 26 26" fill="none" xmlns="http://www.w3.org/2000/svg">
<g clip-path="url(#clip0)">
<path d="M12.8349 11.959C15.8611 11.959 18.3145 9.50563 18.3145 6.47939C18.3145 3.45314 15.8611 1 12.8349 1C9.80861 1 7.35547 3.45337 7.35547 6.47961C7.35887 9.50427 9.8102 11.9556 12.8349 11.959ZM12.8349 2.16071C15.2202 2.16071 17.1538 4.09426 17.1538 6.47961C17.1538 8.86475 15.2202 10.7983 12.8349 10.7983C10.4497 10.7983 8.51618 8.86475 8.51618 6.47961C8.5189 4.09539 10.4509 2.16343 12.8349 2.16071Z" fill="white"/>
<path d="M13.0013 13.3333C7.29333 13.3311 2.66567 17.7408 2.66797 23.1796V25.4392C2.66797 25.7489 2.93138 25.9999 3.2564 25.9999H22.7462C23.0712 25.9999 23.3346 25.7489 23.3346 25.4392V23.1796C23.3372 17.7408 18.7093 13.3311 13.0013 13.3333ZM22.1578 24.8785H3.84482V23.1796C3.83655 20.0572 5.57999 17.1688 8.4164 15.6052C11.2528 14.0418 14.7498 14.0418 17.5864 15.6052C20.4228 17.1688 22.1663 20.0572 22.1578 23.1796V24.8785Z" fill="white"/>
<path d="M6.50131 22.3335C6.22461 22.3335 6 22.5581 6 22.8348C6 23.1115 6.22461 23.3361 6.50131 23.3361C6.77801 23.3361 7.00262 23.1115 7.00262 22.8348C7.00262 22.5581 6.77801 22.3335 6.50131 22.3335Z" fill="white"/>
<path d="M14.3359 22.3474C13.3359 22.3474 12.3252 22.3568 11.6693 22.3474C10.0616 22.3255 9.14958 22.3474 7.97881 22.3474C7.97881 22.3474 7.48295 22.5141 7.48295 22.8474C7.48296 23.1807 7.97884 23.3302 7.97884 23.3302C9.31625 23.3302 10.3519 23.3122 11.6693 23.3302C12.3619 23.3402 13.6692 23.3302 14.3359 23.3302C14.3359 23.3302 14.8359 23.1808 14.8359 22.8474C14.8359 22.5141 14.5026 22.3474 14.3359 22.3474Z" fill="white"/>
</g>
<defs>
<clipPath id="clip0">
<rect width="26" height="26" fill="white"/>
</clipPath>
</defs>
</svg>
