<svg width="8" height="9" viewBox="0 0 8 9" fill="none" xmlns="http://www.w3.org/2000/svg">
<path d="M6.51925 2.16943L5.98003 8.31398H2.02691L1.4878 2.16943L0.804688 2.22931L1.35364 8.4853C1.38253 8.77365 1.63272 8.99972 1.92337 8.99972H6.08359C6.37412 8.99972 6.62441 8.77376 6.65378 8.48118L7.20239 2.22931L6.51925 2.16943Z" fill="white"/>
<path d="M5.25775 0.542725H2.74334C2.42823 0.542725 2.17188 0.799079 2.17188 1.11419V2.19996H2.85762V1.22847H5.14344V2.19995H5.82918V1.11417C5.82922 0.799079 5.57286 0.542725 5.25775 0.542725Z" fill="white"/>
<path d="M7.65753 1.85693H0.342879C0.153492 1.85693 0 2.01043 0 2.19981C0 2.3892 0.153492 2.54269 0.342879 2.54269H7.65755C7.84693 2.54269 8.00043 2.3892 8.00043 2.19981C8.00043 2.01043 7.84692 1.85693 7.65753 1.85693Z" fill="white"/>
</svg>
