<svg width="76" height="76" viewBox="0 0 76 76" fill="none" xmlns="http://www.w3.org/2000/svg">
<path d="M16.0921 43.7112L43.711 16.0913L75.8943 16.0923L16.0918 75.894L16.0921 43.7112Z" fill="#F0BB00"/>
<path d="M31.068 53.8187C30.4797 54.407 29.8197 54.8784 29.0881 55.2329C28.364 55.5799 27.7003 55.7458 27.0969 55.7307L26.7801 54.7577C27.3533 54.7577 27.9681 54.6107 28.6243 54.3165C29.2729 54.0148 29.8499 53.6113 30.3553 53.1059C31.0642 52.3969 31.4678 51.737 31.5658 51.126C31.6563 50.5075 31.4942 49.9909 31.0793 49.5761C30.7625 49.2593 30.4118 49.1046 30.0272 49.1122C29.65 49.1122 29.2729 49.2027 28.8958 49.3837C28.5111 49.5572 28.0095 49.8325 27.3911 50.2096C26.6444 50.6546 26.0259 50.9865 25.5356 51.2052C25.0378 51.4164 24.5174 51.5069 23.9743 51.4768C23.4388 51.439 22.9259 51.1751 22.4357 50.6848C22.0359 50.285 21.7795 49.8174 21.6663 49.2819C21.5456 48.7388 21.606 48.1505 21.8473 47.517C22.0887 46.8834 22.5337 46.2423 23.1824 45.5936C23.6349 45.1411 24.1403 44.764 24.6984 44.4623C25.2565 44.1455 25.8034 43.9381 26.3389 43.84L26.7236 44.7904C26.173 44.9035 25.6563 45.0958 25.1736 45.3674C24.6833 45.6313 24.2572 45.9444 23.8951 46.3064C23.2012 47.0003 22.8128 47.6603 22.7298 48.2863C22.6468 48.8972 22.8166 49.4139 23.2389 49.8363C23.5557 50.1531 23.9064 50.3152 24.2911 50.3228C24.6758 50.3152 25.0642 50.2209 25.4564 50.0399C25.8486 49.8438 26.3502 49.561 26.9611 49.1914C27.6852 48.7539 28.2962 48.4296 28.794 48.2184C29.2918 47.9921 29.8084 47.8979 30.3439 47.9356C30.8719 47.9657 31.3773 48.2222 31.86 48.7049C32.2597 49.1047 32.5162 49.5798 32.6293 50.1304C32.7424 50.6659 32.6746 51.2543 32.4257 51.8954C32.1692 52.5289 31.7167 53.17 31.068 53.8187ZM38.6282 41.8914L34.2159 46.3037L35.3812 49.3698L34.51 50.2409L30.2108 38.7009L31.0367 37.875L42.5767 42.1742L41.6942 43.0567L38.6282 41.8914ZM37.6439 41.518L31.4893 39.1648L33.8425 45.3194L37.6439 41.518ZM35.9672 32.9445L36.8044 32.1073L43.9999 39.3029L48.4349 34.8679L49.159 35.592L43.8868 40.8641L35.9672 32.9445ZM55.4253 27.8775L56.1494 28.6016L50.5491 34.2019L42.6295 26.2823L48.0601 20.8517L48.7841 21.5758L44.1908 26.1691L47.0079 28.9863L51.1034 24.8907L51.8162 25.6035L47.7206 29.699L50.6622 32.6406L55.4253 27.8775Z" fill="white"/>
</svg>
