<svg width="26" height="26" viewBox="0 0 26 26" fill="none" xmlns="http://www.w3.org/2000/svg">
<path d="M15.7422 9.64844C15.4619 9.64844 15.2344 9.87594 15.2344 10.1562C15.2344 10.4366 15.4619 10.6641 15.7422 10.6641C16.0225 10.6641 16.25 10.4366 16.25 10.1562C16.25 9.87594 16.0225 9.64844 15.7422 9.64844Z" fill="#2E2E2E"/>
<path d="M25.4049 22.5326L18.6266 15.7543C19.7309 14.091 20.3125 12.1649 20.3125 10.1562C20.3125 4.55609 15.7564 0 10.1562 0C4.55609 0 0 4.55609 0 10.1562C0 15.7564 4.55609 20.3125 10.1562 20.3125C12.165 20.3125 14.0911 19.7308 15.7543 18.6267L17.6279 20.5002L17.6287 20.5011L22.5326 25.4049C22.9164 25.7886 23.4264 26 23.9688 26C24.5111 26 25.0211 25.7886 25.4047 25.405C25.7886 25.0215 26 24.5114 26 23.9688C26 23.4261 25.7886 22.916 25.4049 22.5326ZM15.5155 17.5564C13.948 18.695 12.0948 19.2969 10.1562 19.2969C5.11611 19.2969 1.01562 15.1964 1.01562 10.1562C1.01562 5.11611 5.11611 1.01562 10.1562 1.01562C15.1964 1.01562 19.2969 5.11611 19.2969 10.1562C19.2969 12.0948 18.6951 13.9479 17.5565 15.5154C16.9869 16.3002 16.3002 16.9869 15.5155 17.5564ZM16.5809 18.0168C17.1065 17.5869 17.5869 17.1064 18.0168 16.5809L19.4575 18.0216C19.0194 18.5387 18.5387 19.0195 18.0216 19.4575L16.5809 18.0168ZM24.6867 24.6867C24.4948 24.8787 24.2398 24.9844 23.9688 24.9844C23.6977 24.9844 23.4427 24.8787 23.2508 24.6867L18.7416 20.1776C19.2559 19.7363 19.7363 19.2559 20.1776 18.7417L24.6868 23.251C24.8787 23.4426 24.9844 23.6975 24.9844 23.9688C24.9844 24.24 24.8787 24.4949 24.6867 24.6867Z" fill="#2E2E2E"/>
<path d="M10.1562 2.03125C5.67607 2.03125 2.03125 5.67607 2.03125 10.1562C2.03125 14.6364 5.67607 18.2812 10.1562 18.2812C14.6364 18.2812 18.2812 14.6364 18.2812 10.1562C18.2812 5.67607 14.6364 2.03125 10.1562 2.03125ZM10.1562 17.2656C6.23614 17.2656 3.04688 14.0764 3.04688 10.1562C3.04688 6.23614 6.23614 3.04688 10.1562 3.04688C14.0764 3.04688 17.2656 6.23614 17.2656 10.1562C17.2656 14.0764 14.0764 17.2656 10.1562 17.2656Z" fill="#2E2E2E"/>
<path d="M15.8471 7.97636C15.4098 6.83825 14.6484 5.86518 13.6452 5.16242C12.6181 4.44285 11.4116 4.0625 10.1563 4.0625C9.87584 4.0625 9.64844 4.2899 9.64844 4.57031C9.64844 4.85073 9.87584 5.07812 10.1563 5.07812C12.2433 5.07812 14.1492 6.38919 14.899 8.34067C14.9766 8.54257 15.169 8.66648 15.3732 8.66648C15.4337 8.66648 15.4953 8.65556 15.5552 8.63256C15.8169 8.53196 15.9477 8.23819 15.8471 7.97636Z" fill="#2E2E2E"/>
</svg>
