<svg width="48" height="35" viewBox="0 0 48 35" fill="none" xmlns="http://www.w3.org/2000/svg">
<path d="M1.35753 0.667683C1.35753 1.03647 1.05368 1.33537 0.678764 1.33537C0.303853 1.33537 0 1.03647 0 0.667683C0 0.298893 0.303853 0 0.678764 0C1.05368 0 1.35753 0.298893 1.35753 0.667683Z" fill="#F0BB00"/>
<path d="M11.3835 24.6765C8.74949 24.6765 6.60742 26.8186 6.60742 29.4526C6.60742 32.0867 8.74949 34.2287 11.3835 34.2287C14.0176 34.2287 16.1596 32.0867 16.1596 29.4526C16.1596 26.8186 14.0175 24.6765 11.3835 24.6765ZM11.3835 32.6367C9.62747 32.6367 8.19949 31.2086 8.19949 29.4526C8.19949 27.6966 9.62756 26.2686 11.3835 26.2686C13.1395 26.2686 14.5676 27.6967 14.5676 29.4526C14.5676 31.2086 13.1395 32.6367 11.3835 32.6367Z" fill="#F0BB00"/>
<path d="M38.448 24.6765C35.8139 24.6765 33.6719 26.8186 33.6719 29.4526C33.6719 32.0867 35.8139 34.2287 38.448 34.2287C41.082 34.2287 43.2241 32.0867 43.2241 29.4526C43.2241 26.8186 41.082 24.6765 38.448 24.6765ZM38.448 32.6367C36.6919 32.6367 35.2639 31.2086 35.2639 29.4526C35.2639 27.6966 36.692 26.2686 38.448 26.2686C40.204 26.2686 41.632 27.6967 41.632 29.4526C41.632 31.2086 40.204 32.6367 38.448 32.6367Z" fill="#F0BB00"/>
<path d="M47.8721 20.266L40.7079 9.12174C40.5615 8.89403 40.3091 8.75635 40.0384 8.75635H31.2823C30.8421 8.75635 30.4863 9.11297 30.4863 9.55233V29.4527C30.4863 29.8929 30.8421 30.2487 31.2823 30.2487H34.4664V28.6567H32.0783V10.3484H39.6038L46.4066 20.9307V28.6568H42.4265V30.2488H47.2026C47.6428 30.2488 47.9986 29.893 47.9986 29.4528V20.6966C47.9987 20.5446 47.9549 20.3941 47.8721 20.266Z" fill="#F0BB00"/>
<path d="M35.2638 19.1043V13.5323H41.632V11.9402H34.4679C34.0277 11.9402 33.6719 12.2968 33.6719 12.7362V19.9003C33.6719 20.3405 34.0277 20.6963 34.4679 20.6963H46.4081V19.1043H35.2638V19.1043Z" fill="#F0BB00"/>
<path d="M31.2829 3.18408H1.03427C0.594903 3.18408 0.238281 3.5407 0.238281 3.98007V29.4527C0.238281 29.8929 0.594903 30.2486 1.03427 30.2486H7.40244V28.6566H1.83035V4.77605H30.487V28.6566H15.3626V30.2486H31.2829C31.7232 30.2486 32.0789 29.8929 32.0789 29.4527V3.98007C32.0789 3.5407 31.7232 3.18408 31.2829 3.18408Z" fill="#F0BB00"/>
<path d="M5.80931 25.4722H1.0332V27.0642H5.80931V25.4722Z" fill="#F0BB00"/>
<path d="M47.2036 25.4722H44.0195V27.0642H47.2036V25.4722Z" fill="#F0BB00"/>
<path d="M12.18 28.6567H10.5879V30.2488H12.18V28.6567Z" fill="#F0BB00"/>
<path d="M39.2444 28.6567H37.6523V30.2488H39.2444V28.6567Z" fill="#F0BB00"/>
<path d="M14.5681 0H3.42383V1.59207H14.5681V0Z" fill="#F0BB00"/>
</svg>
