<svg width="42" height="46" viewBox="0 0 42 46" fill="none" xmlns="http://www.w3.org/2000/svg">
<path d="M41.0725 7.57694L41.0113 7.56624C34.0273 6.34167 27.4216 3.8406 21.3778 0.132655C21.089 -0.0445172 20.7249 -0.0442477 20.4364 0.133643C14.4348 3.83377 7.8705 6.32721 0.925931 7.54495L0.743278 7.57694C0.313465 7.65231 0 8.02553 0 8.4619V20.2221C0 26.212 2.0674 32.0813 5.82143 36.749C9.57538 41.4165 14.8648 44.6946 20.7152 45.9792C20.7788 45.993 20.8433 46 20.908 46C20.9728 46 21.0376 45.993 21.1012 45.9791C26.9522 44.6915 32.2417 41.4109 35.9952 36.7415C39.7488 32.0721 41.816 26.2012 41.816 20.2101V8.4619C41.816 8.02535 41.5024 7.65213 41.0725 7.57694ZM40.0192 20.2101C40.0192 31.5976 31.9942 41.6466 20.9078 44.1808C9.82173 41.652 1.79688 31.6082 1.79688 20.2221V9.21362C8.57856 7.95581 15.0036 5.51403 20.9093 1.95002C26.8203 5.50082 33.2431 7.94152 40.0192 9.21227V20.2101Z" fill="#F0BB00"/>
<path d="M20.8886 6.52785C21.0392 6.52785 21.1917 6.48994 21.332 6.41025L21.3411 6.40513C21.3415 6.40486 21.3488 6.40081 21.3491 6.40063C21.7815 6.15779 21.9319 5.61235 21.6894 5.17984C21.4467 4.74724 20.8961 4.59513 20.4635 4.83717L20.4437 4.84831C20.0124 5.09359 19.8616 5.64208 20.1069 6.07342C20.2725 6.36452 20.576 6.52785 20.8886 6.52785Z" fill="#F0BB00"/>
<path d="M16.9328 6.66811C13.0559 8.51718 8.96184 9.94597 4.76434 10.9145C4.35663 11.0086 4.06787 11.3715 4.06787 11.7899V20.2097C4.06787 21.183 4.13355 22.1657 4.26283 23.1305C4.32321 23.5818 4.70891 23.9096 5.15211 23.9096C5.19182 23.9096 5.23207 23.907 5.27259 23.9015C5.76439 23.8356 6.10957 23.3835 6.04363 22.8917C5.92485 22.0058 5.86466 21.1034 5.86466 20.2097V12.5003C9.94581 11.5079 13.9263 10.0929 17.7063 8.28997C18.1542 8.07641 18.3441 7.54013 18.1305 7.09226C17.9168 6.64439 17.3804 6.45464 16.9328 6.66811Z" fill="#F0BB00"/>
<path d="M36.8507 10.8914C36.3546 10.8914 35.9523 11.2936 35.9523 11.7898V20.2096C35.9523 28.1973 31.2329 35.526 23.929 38.8805C23.4781 39.0876 23.2804 39.621 23.4875 40.0719C23.6389 40.4014 23.9644 40.5956 24.3045 40.5956C24.43 40.5956 24.5575 40.5692 24.6789 40.5134C28.5301 38.7447 31.7992 35.9131 34.133 32.325C36.4987 28.6875 37.7492 24.4981 37.7492 20.2096V11.7898C37.7492 11.2937 37.3469 10.8914 36.8507 10.8914Z" fill="#F0BB00"/>
<path d="M20.7122 40.0403L20.678 40.0493C20.1984 40.1766 19.9128 40.6685 20.0401 41.1481C20.1468 41.5506 20.5102 41.8164 20.9078 41.8164C20.984 41.8164 21.0617 41.8067 21.1389 41.7861L21.1731 41.777C21.6527 41.6497 21.9383 41.1578 21.811 40.6782C21.6837 40.1984 21.1915 39.9129 20.7122 40.0403Z" fill="#F0BB00"/>
<path d="M32.9575 23.1671C33.5422 22.2167 33.3955 21.0061 32.6005 20.2231L31.667 19.3036C31.545 19.1835 31.4821 19.0167 31.4943 18.8461L31.5878 17.5325C31.6674 16.4144 30.9735 15.4075 29.9003 15.0839L28.664 14.7112C28.4992 14.6615 28.3653 14.5424 28.2967 14.3844L27.7793 13.1906C27.3375 12.1717 26.2256 11.5877 25.1364 11.8013L23.882 12.0474C23.7125 12.0807 23.5375 12.0376 23.4028 11.9288L22.4044 11.1227C21.5377 10.4231 20.2798 10.4229 19.4132 11.1227L18.4146 11.9288C18.28 12.0376 18.105 12.0807 17.9354 12.0474L16.681 11.8014C15.5914 11.5874 14.4797 12.1717 14.0382 13.1904L13.5204 14.3845C13.4518 14.5424 13.3181 14.6615 13.1532 14.7112L11.9172 15.0839C10.844 15.4074 10.1501 16.4143 10.2297 17.5325L10.3232 18.846C10.3353 19.0167 10.2724 19.1835 10.1505 19.3035L9.21696 20.2231C8.42202 21.0062 8.27522 22.2168 8.86001 23.1671L9.55028 24.2888C9.63986 24.4342 9.66115 24.611 9.60895 24.7736L9.20492 26.0297C8.86289 27.0936 9.29522 28.2351 10.2561 28.8057L11.3749 29.47C11.5225 29.5577 11.6237 29.7049 11.6525 29.874L11.8727 31.1656C12.0617 32.2743 12.9782 33.0876 14.1015 33.1434L15.383 33.2071C15.5555 33.2157 15.7145 33.2995 15.819 33.437L16.6003 34.4649C17.0603 35.0702 17.7754 35.4026 18.5039 35.4026C18.8422 35.4026 19.1834 35.3309 19.5032 35.1813L20.6616 34.6404C20.8187 34.5671 20.9987 34.5672 21.1558 34.6404L22.3141 35.1813C23.3229 35.6523 24.5438 35.351 25.2172 34.4647L25.9982 33.4369C26.1028 33.2994 26.2617 33.2156 26.4342 33.207L27.716 33.1433C28.8393 33.0875 29.7558 32.2742 29.9448 31.1655L30.1649 29.874C30.1938 29.7048 30.295 29.5576 30.4426 29.47L31.5614 28.8057C32.5223 28.2351 32.9546 27.0936 32.6125 26.0296L32.2086 24.7737C32.1563 24.611 32.1776 24.4343 32.2671 24.2888L32.9575 23.1671ZM31.4272 22.2255L30.7367 23.3474C30.372 23.9404 30.2849 24.6608 30.498 25.3238L30.9018 26.5798C30.9859 26.8408 30.8797 27.1208 30.644 27.2608L29.5252 27.9251C28.9236 28.2822 28.5113 28.8826 28.3937 29.5722L28.1736 30.8637C28.1271 31.1356 27.9023 31.3351 27.6269 31.3488L26.3451 31.4125C25.6416 31.4475 24.9936 31.7892 24.5676 32.3499L23.7866 33.3777C23.6214 33.5951 23.322 33.6691 23.0746 33.5535L21.9162 33.0126C21.2759 32.7136 20.5417 32.7136 19.9014 33.0126L18.7429 33.5535C18.4953 33.669 18.196 33.595 18.0309 33.3777L17.2495 32.3496C16.8234 31.789 16.1756 31.4474 15.4722 31.4125L14.1907 31.3488C13.9153 31.3351 13.6905 31.1356 13.644 30.8637L13.4239 29.5721C13.3063 28.8825 12.8939 28.2822 12.2924 27.925L11.1736 27.2607C10.9378 27.1207 10.8317 26.8407 10.9156 26.5798L11.3197 25.3236C11.5327 24.6607 11.4457 23.9403 11.0808 23.3472L10.3904 22.2254C10.247 21.9923 10.283 21.6954 10.478 21.5033L11.4117 20.5837C11.9085 20.0941 12.1652 19.4144 12.1156 18.7185L12.0221 17.405C12.0026 17.1307 12.1727 16.8837 12.436 16.8044L13.672 16.4317C14.3442 16.229 14.8899 15.7433 15.169 15.0993L15.6868 13.9053C15.7801 13.6901 15.9954 13.5539 16.2242 13.5539C16.2609 13.5539 16.298 13.5574 16.335 13.5646L17.5893 13.8107C18.2823 13.9468 18.9943 13.7705 19.5434 13.3269L20.542 12.5208C20.7544 12.3492 21.063 12.3492 21.2757 12.5208L22.2741 13.3269C22.8232 13.7704 23.5354 13.9466 24.2282 13.8108L25.4825 13.5646C25.7494 13.5121 26.0224 13.6556 26.1308 13.9054L26.6482 15.0992C26.9274 15.7433 27.4732 16.2291 28.1453 16.4317L29.3816 16.8044C29.6448 16.8837 29.815 17.1308 29.7955 17.405L29.702 18.7186C29.6524 19.4144 29.9091 20.0941 30.406 20.5838L31.3396 21.5034C31.5345 21.6956 31.5706 21.9924 31.4272 22.2255Z" fill="#F0BB00"/>
<path d="M23.2458 18.4058C22.8138 18.1618 22.2658 18.3142 22.0218 18.7465L17.1909 27.3036C16.947 27.7358 17.0995 28.2838 17.5316 28.5277C17.6712 28.6065 17.8228 28.6439 17.9725 28.6439C18.286 28.6439 18.5905 28.4795 18.7557 28.187L23.5865 19.6298C23.8304 19.1977 23.6779 18.6497 23.2458 18.4058Z" fill="#F0BB00"/>
<path d="M24.0469 23.7668C22.5607 23.7668 21.3516 24.976 21.3516 26.4622C21.3516 27.9484 22.5607 29.1575 24.0469 29.1575C25.5331 29.1575 26.7422 27.9484 26.7422 26.4622C26.7422 24.976 25.5331 23.7668 24.0469 23.7668ZM24.0469 27.3606C23.5515 27.3606 23.1484 26.9576 23.1484 26.4622C23.1484 25.9668 23.5515 25.5637 24.0469 25.5637C24.5423 25.5637 24.9453 25.9668 24.9453 26.4622C24.9453 26.9576 24.5423 27.3606 24.0469 27.3606Z" fill="#F0BB00"/>
<path d="M17.7681 16.8423C16.2819 16.8423 15.0728 18.0515 15.0728 19.5377C15.0728 21.0239 16.2819 22.233 17.7681 22.233C19.2543 22.233 20.4634 21.0239 20.4634 19.5377C20.4634 18.0514 19.2543 16.8423 17.7681 16.8423ZM17.7681 20.4361C17.2727 20.4361 16.8696 20.0331 16.8696 19.5377C16.8696 19.0423 17.2727 18.6392 17.7681 18.6392C18.2635 18.6392 18.6665 19.0423 18.6665 19.5377C18.6665 20.0331 18.2635 20.4361 17.7681 20.4361Z" fill="#F0BB00"/>
</svg>
