<svg width="40" height="51" viewBox="0 0 40 51" fill="none" xmlns="http://www.w3.org/2000/svg">
<path d="M0 0H40V48.6C40 49.4889 38.927 49.936 38.2959 49.3101L20 31.1667L1.70414 49.3101C1.07298 49.936 0 49.4889 0 48.6V0Z" fill="#2C6EB5"/>
<path d="M11.5 8.64H9.04V8H14.7V8.64H12.24V15H11.5V8.64ZM18.8445 15.06C18.1512 15.06 17.5212 14.9067 16.9545 14.6C16.3945 14.2867 15.9545 13.86 15.6345 13.32C15.3212 12.78 15.1645 12.1733 15.1645 11.5C15.1645 10.8267 15.3212 10.22 15.6345 9.68C15.9545 9.14 16.3945 8.71667 16.9545 8.41C17.5212 8.09667 18.1512 7.94 18.8445 7.94C19.5379 7.94 20.1612 8.09333 20.7145 8.4C21.2745 8.70667 21.7145 9.13333 22.0345 9.68C22.3545 10.22 22.5145 10.8267 22.5145 11.5C22.5145 12.1733 22.3545 12.7833 22.0345 13.33C21.7145 13.87 21.2745 14.2933 20.7145 14.6C20.1612 14.9067 19.5379 15.06 18.8445 15.06ZM18.8445 14.4C19.3979 14.4 19.8979 14.2767 20.3445 14.03C20.7912 13.7767 21.1412 13.43 21.3945 12.99C21.6479 12.5433 21.7745 12.0467 21.7745 11.5C21.7745 10.9533 21.6479 10.46 21.3945 10.02C21.1412 9.57333 20.7912 9.22667 20.3445 8.98C19.8979 8.72667 19.3979 8.6 18.8445 8.6C18.2912 8.6 17.7879 8.72667 17.3345 8.98C16.8879 9.22667 16.5345 9.57333 16.2745 10.02C16.0212 10.46 15.8945 10.9533 15.8945 11.5C15.8945 12.0467 16.0212 12.5433 16.2745 12.99C16.5345 13.43 16.8879 13.7767 17.3345 14.03C17.7879 14.2767 18.2912 14.4 18.8445 14.4ZM26.7932 8C27.6865 8 28.3865 8.21333 28.8932 8.64C29.3999 9.06667 29.6532 9.65333 29.6532 10.4C29.6532 11.1467 29.3999 11.7333 28.8932 12.16C28.3865 12.58 27.6865 12.79 26.7932 12.79L24.9132 12.79V15H24.1732V8H26.7932ZM26.7732 12.14C27.4665 12.14 27.9965 11.99 28.3632 11.69C28.7299 11.3833 28.9132 10.9533 28.9132 10.4C28.9132 9.83333 28.7299 9.4 28.3632 9.1C27.9965 8.79333 27.4665 8.64 26.7732 8.64H24.9132V12.14L26.7732 12.14Z" fill="white"/>
<path d="M7.011 20.318V24H6.514V20.759H4.204V24H3.707V20.318H7.011ZM10.3208 20.29C10.6661 20.29 10.9788 20.3693 11.2588 20.528C11.5388 20.682 11.7581 20.9013 11.9168 21.186C12.0755 21.4707 12.1548 21.795 12.1548 22.159C12.1548 22.5277 12.0755 22.8543 11.9168 23.139C11.7581 23.4237 11.5388 23.6453 11.2588 23.804C10.9835 23.958 10.6708 24.035 10.3208 24.035C10.0221 24.035 9.75146 23.9743 9.5088 23.853C9.2708 23.727 9.0748 23.545 8.9208 23.307V25.358H8.4238V20.318H8.8998V21.046C9.04913 20.8033 9.24513 20.6167 9.4878 20.486C9.73513 20.3553 10.0128 20.29 10.3208 20.29ZM10.2858 23.594C10.5425 23.594 10.7758 23.5357 10.9858 23.419C11.1958 23.2977 11.3591 23.1273 11.4758 22.908C11.5971 22.6887 11.6578 22.439 11.6578 22.159C11.6578 21.879 11.5971 21.6317 11.4758 21.417C11.3591 21.1977 11.1958 21.0273 10.9858 20.906C10.7758 20.7847 10.5425 20.724 10.2858 20.724C10.0245 20.724 9.7888 20.7847 9.5788 20.906C9.37346 21.0273 9.21013 21.1977 9.0888 21.417C8.97213 21.6317 8.9138 21.879 8.9138 22.159C8.9138 22.439 8.97213 22.6887 9.0888 22.908C9.21013 23.1273 9.37346 23.2977 9.5788 23.419C9.7888 23.5357 10.0245 23.594 10.2858 23.594ZM14.7416 24.035C14.387 24.035 14.0673 23.9557 13.7826 23.797C13.498 23.6337 13.274 23.4097 13.1106 23.125C12.9473 22.8403 12.8656 22.5183 12.8656 22.159C12.8656 21.7997 12.9473 21.4777 13.1106 21.193C13.274 20.9083 13.498 20.6867 13.7826 20.528C14.0673 20.3693 14.387 20.29 14.7416 20.29C15.0963 20.29 15.416 20.3693 15.7006 20.528C15.9853 20.6867 16.207 20.9083 16.3656 21.193C16.529 21.4777 16.6106 21.7997 16.6106 22.159C16.6106 22.5183 16.529 22.8403 16.3656 23.125C16.207 23.4097 15.9853 23.6337 15.7006 23.797C15.416 23.9557 15.0963 24.035 14.7416 24.035ZM14.7416 23.594C15.003 23.594 15.2363 23.5357 15.4416 23.419C15.6516 23.2977 15.815 23.1273 15.9316 22.908C16.0483 22.6887 16.1066 22.439 16.1066 22.159C16.1066 21.879 16.0483 21.6293 15.9316 21.41C15.815 21.1907 15.6516 21.0227 15.4416 20.906C15.2363 20.7847 15.003 20.724 14.7416 20.724C14.4803 20.724 14.2446 20.7847 14.0346 20.906C13.8293 21.0227 13.666 21.1907 13.5446 21.41C13.428 21.6293 13.3696 21.879 13.3696 22.159C13.3696 22.439 13.428 22.6887 13.5446 22.908C13.666 23.1273 13.8293 23.2977 14.0346 23.419C14.2446 23.5357 14.4803 23.594 14.7416 23.594ZM21.2433 23.566V24.889H20.7743V24H17.4773V24.889H17.0083V23.566H17.2183C17.4656 23.552 17.6336 23.37 17.7223 23.02C17.811 22.67 17.8716 22.18 17.9043 21.55L17.9533 20.318H20.6693V23.566H21.2433ZM18.3593 21.578C18.336 22.1007 18.2916 22.5323 18.2263 22.873C18.161 23.209 18.0443 23.44 17.8763 23.566H20.1723V20.759H18.4013L18.3593 21.578ZM23.4789 20.29C23.9595 20.29 24.3282 20.4113 24.5849 20.654C24.8415 20.892 24.9699 21.2467 24.9699 21.718V24H24.4939V23.426C24.3819 23.6173 24.2162 23.7667 23.9969 23.874C23.7822 23.9813 23.5255 24.035 23.2269 24.035C22.8162 24.035 22.4895 23.937 22.2469 23.741C22.0042 23.545 21.8829 23.286 21.8829 22.964C21.8829 22.6513 21.9949 22.3993 22.2189 22.208C22.4475 22.0167 22.8092 21.921 23.3039 21.921H24.4729V21.697C24.4729 21.3797 24.3842 21.1393 24.2069 20.976C24.0295 20.808 23.7705 20.724 23.4299 20.724C23.1965 20.724 22.9725 20.7637 22.7579 20.843C22.5432 20.9177 22.3589 21.0227 22.2049 21.158L21.9809 20.787C22.1675 20.6283 22.3915 20.507 22.6529 20.423C22.9142 20.3343 23.1895 20.29 23.4789 20.29ZM23.3039 23.643C23.5839 23.643 23.8242 23.58 24.0249 23.454C24.2255 23.3233 24.3749 23.1367 24.4729 22.894V22.292H23.3179C22.6879 22.292 22.3729 22.5113 22.3729 22.95C22.3729 23.1647 22.4545 23.335 22.6179 23.461C22.7812 23.5823 23.0099 23.643 23.3039 23.643ZM29.5199 22.362H28.7219V24H28.2249V22.362H27.4269L26.2999 24H25.7049L27.0279 22.103L25.8099 20.318H26.3489L27.4269 21.935H28.2249V20.318H28.7219V21.935H29.5199L30.6049 20.318H31.1439L29.9259 22.11L31.2489 24H30.6539L29.5199 22.362ZM32.0761 20.318H32.5731V24H32.0761V20.318ZM32.3281 19.513C32.2255 19.513 32.1391 19.478 32.0691 19.408C31.9991 19.338 31.9641 19.254 31.9641 19.156C31.9641 19.0627 31.9991 18.981 32.0691 18.911C32.1391 18.841 32.2255 18.806 32.3281 18.806C32.4308 18.806 32.5171 18.841 32.5871 18.911C32.6571 18.9763 32.6921 19.0557 32.6921 19.149C32.6921 19.2517 32.6571 19.338 32.5871 19.408C32.5171 19.478 32.4308 19.513 32.3281 19.513ZM36.3352 22.096C36.8345 22.2127 37.0842 22.5137 37.0842 22.999C37.0842 23.321 36.9652 23.5683 36.7272 23.741C36.4892 23.9137 36.1345 24 35.6632 24H33.9902V20.318H35.6142C36.0342 20.318 36.3632 20.3997 36.6012 20.563C36.8392 20.7263 36.9582 20.9597 36.9582 21.263C36.9582 21.4637 36.9022 21.6363 36.7902 21.781C36.6829 21.921 36.5312 22.026 36.3352 22.096ZM34.4732 21.956H35.5792C35.8639 21.956 36.0809 21.9023 36.2302 21.795C36.3842 21.6877 36.4612 21.5313 36.4612 21.326C36.4612 21.1207 36.3842 20.9667 36.2302 20.864C36.0809 20.7613 35.8639 20.71 35.5792 20.71H34.4732V21.956ZM35.6422 23.608C35.9595 23.608 36.1975 23.5567 36.3562 23.454C36.5149 23.3513 36.5942 23.1903 36.5942 22.971C36.5942 22.7517 36.5219 22.5907 36.3772 22.488C36.2325 22.3807 36.0039 22.327 35.6912 22.327H34.4732V23.608H35.6422Z" fill="white"/>
</svg>
