<svg width="13" height="13" viewBox="0 0 13 13" fill="none" xmlns="http://www.w3.org/2000/svg">
<path d="M8.8389 6.2134L5.61701 4.06812C5.49877 3.98961 5.34181 3.97778 5.21221 4.03879C5.08158 4.09933 5 4.2223 5 4.35519V8.64434C5 8.77866 5.08158 8.90115 5.21221 8.96169C5.26746 8.98723 5.32787 9 5.3888 9C5.46831 9 5.54886 8.97683 5.61701 8.93095L8.8389 6.78756C8.94062 6.71898 9 6.61304 9 6.50048C9.00051 6.38603 8.93959 6.28056 8.8389 6.2134Z" fill="#F0BB00"/>
<path d="M6.50022 0C2.90965 0 0 2.91004 0 6.50108C0 10.0908 2.90965 13 6.50022 13C10.0899 13 13 10.0904 13 6.50108C13.0004 2.91004 10.0899 0 6.50022 0ZM6.50022 11.9153C3.5101 11.9153 1.08582 9.49203 1.08582 6.50108C1.08582 3.51143 3.5101 1.0851 6.50022 1.0851C9.4899 1.0851 11.9137 3.511 11.9137 6.50108C11.9142 9.49203 9.4899 11.9153 6.50022 11.9153Z" fill="#F0BB00"/>
</svg>
