<svg width="14" height="14" viewBox="0 0 14 14" fill="none" xmlns="http://www.w3.org/2000/svg">
<path d="M7 0C3.1402 0 0 3.14024 0 7.00004C0 10.8598 3.1402 14 7 14C10.8598 14 14 10.8598 14 7.00004C14 3.14024 10.8598 0 7 0ZM7 12.7273C3.84194 12.7273 1.27273 10.1581 1.27273 7.00004C1.27273 3.84202 3.84194 1.27273 7 1.27273C10.1581 1.27273 12.7273 3.84202 12.7273 7.00004C12.7273 10.1581 10.158 12.7273 7 12.7273Z" fill="#F0BB00"/>
<path d="M7.00066 2.96967C6.53289 2.96967 6.15234 3.35047 6.15234 3.81853C6.15234 4.28617 6.53289 4.66664 7.00066 4.66664C7.46843 4.66664 7.84897 4.28617 7.84897 3.81853C7.84897 3.35047 7.46843 2.96967 7.00066 2.96967Z" fill="#F0BB00"/>
<path d="M6.99948 5.93927C6.64803 5.93927 6.36311 6.22419 6.36311 6.57563V10.3938C6.36311 10.7453 6.64803 11.0302 6.99948 11.0302C7.35092 11.0302 7.63584 10.7453 7.63584 10.3938V6.57563C7.63584 6.22419 7.35092 5.93927 6.99948 5.93927Z" fill="#F0BB00"/>
</svg>
