<svg width="18" height="23" viewBox="0 0 18 23" fill="none" xmlns="http://www.w3.org/2000/svg">
<path d="M2.06906 22.72L1.76906 22.42L1.58906 22.6C1.26906 22.28 1.10906 22.02 1.10906 21.82C1.10906 21.66 1.02906 21.58 0.869063 21.58L0.569063 21.16L0.989063 20.44V20.35L1.01906 20.23C1.01906 20.09 0.989063 20.02 0.929063 20.02C0.789063 20.02 0.669063 19.9 0.569063 19.66C0.689063 19.42 0.879063 19.08 1.13906 18.64C1.41906 18.2 1.71906 17.72 2.03906 17.2C2.35906 16.68 2.66906 16.19 2.96906 15.73C3.26906 15.27 3.50906 14.92 3.68906 14.68L4.79906 13.18C5.63906 12.02 6.54906 10.88 7.52906 9.76L7.04906 8.68L6.68906 7.78C6.42906 7.12 6.18906 6.52 5.96906 5.98C5.74906 5.44 5.56906 4.96 5.42906 4.54C5.14906 3.66 5.00906 3.17 5.00906 3.07C5.04906 2.85 5.08906 2.66 5.12906 2.5C5.18906 2.34 5.22906 2.22 5.24906 2.14H5.66906C5.72906 1.98 5.77906 1.9 5.81906 1.9C5.87906 1.92 5.95906 1.98 6.05906 2.08C6.17906 2.16 6.24906 2.2 6.26906 2.2L6.62906 1.84L6.86906 2.14L6.98906 1.42C7.22906 1.42 7.36906 1.46 7.40906 1.54C7.42906 1.62 7.50906 1.67 7.64906 1.69L7.76906 1.72H7.82906L9.08906 4.3L10.2291 6.52C10.7691 5.84 11.2591 5.24 11.6991 4.72C12.1391 4.18 12.5391 3.72 12.8991 3.34C13.2791 2.94 13.6491 2.53 14.0091 2.11C14.3891 1.67 14.7891 1.2 15.2091 0.7L15.3891 1.06L15.5391 0.939998L15.7791 0.82C15.8191 0.84 15.8391 0.909999 15.8391 1.03C15.8391 1.15 15.8891 1.24 15.9891 1.3L16.1091 1.36C16.2291 1.36 16.4191 1.24 16.6791 0.999999C16.9591 0.759999 17.1091 0.639999 17.1291 0.639999C17.1691 0.639999 17.1891 0.659999 17.1891 0.7C17.2091 0.759999 17.2191 0.819999 17.2191 0.879999C17.2191 0.939999 17.2191 0.999999 17.2191 1.06C17.2191 1.2 17.2591 1.32 17.3391 1.42C17.3991 1.5 17.4291 1.61 17.4291 1.75C17.4291 2.09 17.3191 2.4 17.0991 2.68C16.8591 2.98 15.4491 4.84 12.8691 8.26L11.7891 9.7L12.5691 11.32C13.1491 12.5 13.5891 13.44 13.8891 14.14C14.2091 14.82 14.4091 15.26 14.4891 15.46L14.6991 16C14.9991 16.78 15.1491 17.22 15.1491 17.32C15.1491 17.4 15.1091 17.47 15.0291 17.53C14.9491 17.57 14.8591 17.59 14.7591 17.59L14.6691 17.56H14.6091C14.5291 17.56 14.4291 17.64 14.3091 17.8L14.1891 18.46L13.7691 18.34L13.7391 18.43L13.6491 18.88C13.3291 18.86 13.0791 18.8 12.8991 18.7C12.7391 18.6 12.4591 18.31 12.0591 17.83C11.8591 17.59 11.6091 17.24 11.3091 16.78C11.0291 16.3 10.6891 15.72 10.2891 15.04L9.20906 13.18L7.70906 15.34C6.96906 16.42 6.27906 17.47 5.63906 18.49C4.99906 19.51 4.44906 20.44 3.98906 21.28C3.52906 22.14 3.04906 22.6 2.54906 22.66L2.18906 22.48L2.06906 22.72Z" fill="#E23131"/>
</svg>
