<svg width="26" height="24" viewBox="0 0 26 24" fill="none" xmlns="http://www.w3.org/2000/svg">
<path d="M7.22222 15.5294H20.2222C21.0167 15.5294 21.6667 16.1647 21.6667 16.9412C21.6667 17.7176 21.0167 18.3529 20.2222 18.3529H5.77778C4.98333 18.3529 4.33333 17.7176 4.33333 16.9412V2.82353H1.44444C0.65 2.82353 0 2.18824 0 1.41176C0 0.635294 0.65 0 1.44444 0H5.77778C6.57222 0 7.22222 0.635294 7.22222 1.41176V4.23529H26L20.2222 14.1176H7.22222V15.5294ZM6.5 19.7647C7.69889 19.7647 8.66667 20.7106 8.66667 21.8824C8.66667 23.0541 7.69889 24 6.5 24C5.30111 24 4.33333 23.0541 4.33333 21.8824C4.33333 20.7106 5.30111 19.7647 6.5 19.7647ZM19.5 19.7647C20.6989 19.7647 21.6667 20.7106 21.6667 21.8824C21.6667 23.0541 20.6989 24 19.5 24C18.3011 24 17.3333 23.0541 17.3333 21.8824C17.3333 20.7106 18.3011 19.7647 19.5 19.7647Z" fill="#DD0741"/>
</svg>
