<svg width="258" height="48" viewBox="0 0 258 48" fill="none" xmlns="http://www.w3.org/2000/svg">
<path d="M258 0H48.1017V48H258V0Z" fill="#0F2237"/>
<path d="M69.6888 21.4198L63.0224 11.6989H56.0215V35.8908H63.7057V24.7949L69.7034 31.8686L75.701 24.8316V35.8908H83.3925V11.6989H76.3844L69.6888 21.4198Z" fill="white"/>
<path d="M94.0501 11.6989L85.0936 35.8908H93.0905L94.1519 32.6775H102.425L103.45 35.8908H111.447L102.527 11.6989H94.0501ZM95.9621 26.9052C95.9621 26.9052 97.9613 20.0447 98.2884 18.6476C98.6374 19.9491 100.644 26.9052 100.644 26.9052H95.9621Z" fill="white"/>
<path d="M192.571 11.6989L183.615 35.8908H191.612L192.673 32.6775H200.946L201.971 35.8908H209.968L201.048 11.6989H192.571ZM194.483 26.9052C194.483 26.9052 196.483 20.0447 196.81 18.6476C197.159 19.9491 199.165 26.9052 199.165 26.9052H194.483Z" fill="white"/>
<path d="M134.441 20.2359C134.441 13.6327 129.352 11.6989 124.256 11.6989H113.148V35.8908H121.043V28.7362H123.108L127.804 35.8908H136.484L130.334 27.4567C132.726 26.2435 134.434 24.0007 134.434 20.2359H134.441ZM124.089 22.758H121.05V18.1991H124.089C125.63 18.1991 126.517 19.1329 126.517 20.4786C126.517 21.8242 125.63 22.758 124.089 22.758Z" fill="white"/>
<path d="M146.604 18.817C146.604 18.1625 146.851 17.7434 148.458 17.7434C151.126 17.7067 154.063 18.5743 156.389 20.0597V13.1477C154.034 11.8682 150.719 11.1403 147.607 11.1403C142.409 11.1403 138.207 13.5595 138.207 18.6405C138.207 27.0746 149.541 26.104 149.541 28.5967C149.541 29.3909 149.214 29.7732 147.128 29.7732C144.561 29.7732 141.384 28.9056 138.411 26.9423V34.1631C141.043 35.6484 144.292 36.4426 147.913 36.4426C153.416 36.4426 157.96 34.7807 157.96 28.5967C157.96 20.1994 146.604 21.3391 146.604 18.817Z" fill="white"/>
<path d="M174.048 20.3021H167.556V11.6989H159.661V35.8908H167.556V27.2802H174.048V35.8908H181.906V11.6989H174.048V20.3021Z" fill="white"/>
<path d="M219.564 11.6989H211.677V35.8908H229.786V28.9053H219.564V11.6989Z" fill="white"/>
<path d="M239.389 28.9053V11.6989H231.494V35.8908H249.603V28.9053H239.389Z" fill="white"/>
<path d="M48.1017 0H0V48H48.1017V0Z" fill="#DC0A41"/>
<path d="M16.0636 13.0655L13.279 7.81396H8.74573V22.7585H12.9998V15.3462L15.9901 20.6653H16.0636L19.0539 15.3462V22.7585H23.3815V7.81396H18.8556L16.0636 13.0655Z" fill="white"/>
<path d="M33.1311 34.9344L35.9157 40.186H40.449V25.2415H36.1949V32.6462L33.2046 27.3271H33.1311L30.1408 32.6462V25.2415H25.8132V40.186H30.3465L33.1311 34.9344Z" fill="white"/>
<path d="M13.8888 32.7137L8.74573 35.5571V40.186H23.3815V35.8421H16.1297L21.3316 32.7887V32.7137L16.1297 29.6603H23.3815V25.2415H8.74573V29.8628L13.8888 32.7137Z" fill="white"/>
<path d="M35.3059 15.2862L40.449 12.4354V7.81396H25.8132V12.1578H33.0723L27.8631 15.2037V15.2862L33.0723 18.3396H25.8132V22.7585H40.449V18.1296L35.3059 15.2862Z" fill="white"/>
</svg>
