<svg width="19" height="20" viewBox="0 0 19 20" fill="none" xmlns="http://www.w3.org/2000/svg">
<path fill-rule="evenodd" clip-rule="evenodd" d="M8 0C3.58541 0 0 3.57803 0 8C0 12.422 3.58541 16 8 16C12.4146 16 16 12.422 16 8C16 3.57803 12.4146 0 8 0ZM7.92566 1.97653C4.64547 1.97653 1.98139 4.62848 1.98139 7.90595C1.98139 11.1834 4.64547 13.8354 7.92566 13.8354C11.2059 13.8354 13.8699 11.1834 13.8699 7.90595C13.8699 4.62848 11.2059 1.97653 7.92566 1.97653Z" fill="#0F2237"/>
<path fill-rule="evenodd" clip-rule="evenodd" d="M11.9311 12.5446C12.4172 12.0283 13.2068 12.0266 13.6948 12.5409L18.6329 17.7448C19.1209 18.2591 19.1225 19.0946 18.6365 19.611C18.1504 20.1274 17.3608 20.1291 16.8728 19.6148L11.9347 14.4108C11.4467 13.8966 11.4451 13.061 11.9311 12.5446Z" fill="#0F2237"/>
</svg>
